
<svg xmlns="http://www.w3.org/2000/svg" version="1.1" xmlns:xlink="http://www.w3.org/1999/xlink" preserveAspectRatio="none" x="0px" y="0px" width="150px" height="50px" viewBox="0 0 150 50">
<defs>
<radialGradient id="Gradient_1" gradientUnits="userSpaceOnUse" cx="0" cy="0" r="14.800000000000004" fx="0" fy="0" gradientTransform="matrix( 0.9999999999999998, 0, 0, 0.9966216216216214, 21.9,11.65) " spreadMethod="pad">
<stop  offset="56.470588235294116%" stop-color="#02A9D2"/>

<stop  offset="81.56862745098039%" stop-color="#FFFFFF"/>
</radialGradient>

<radialGradient id="Gradient_2" gradientUnits="userSpaceOnUse" cx="0" cy="0" r="24.454885120359904" fx="0" fy="0" gradientTransform="matrix( 0.9118832450140666, -0.41044968931967235, 0.06338201927227817, 0.14005381677906628, 24.1,10.7) " spreadMethod="pad">
<stop  offset="64.70588235294117%" stop-color="#F9C931" stop-opacity="0"/>

<stop  offset="72.54901960784314%" stop-color="#F9C931"/>

<stop  offset="92.54901960784314%" stop-color="#F9C931"/>

<stop  offset="100%" stop-color="#F9C931" stop-opacity="0"/>
</radialGradient>

<g id="icons_xatsat_0_Layer2_0_FILL">
<path fill="url(#Gradient_1)" stroke="none" d="
M 31.45 3.35
Q 31.1 3 30.7 2.65 27.9 0.3 24.1 0.3 19.8 0.3 16.75 3.35 13.7 6.4 13.7 10.7 13.7 11.5 13.8 12.25 14.25 15.55 16.75 18.05 19.8 21.1 24.1 21.1 28.45 21.1 31.45 18.05 34.5 15 34.5 10.7 34.5 6.4 31.45 3.35 Z"/>
</g>

<g id="icons_xatsat_0_Layer1_0_FILL">
<path fill="url(#Gradient_2)" stroke="none" d="
M 12.35 0
L 0 21.3 4.3 22.05 33.4 22.05 49.3 0 12.35 0
M 31.45 3.35
Q 32.85 4.75 33.6 6.4
L 14.55 14.9
Q 14 13.65 13.8 12.25 13.7 11.5 13.7 10.7 13.7 6.4 16.75 3.35 19.8 0.3 24.1 0.3 27.9 0.3 30.7 2.65 31.1 3 31.45 3.35 Z"/>
</g>

<g id="icons_xatsat_0_Layer0_0_FILL">
<path fill="#FFFFFF" stroke="none" d="
M 50.6 8.4
L 47.15 8.4 44.8 11.7 42.4 8.4 38.9 8.4 43.05 14.15 38.45 20.45 41.9 20.45 44.75 16.5 47.65 20.45 51.15 20.45 46.5 14.1 50.6 8.4
M 60.9 8.55
L 60.9 9.9
Q 60.05 9.05 59.1 8.65 58.15 8.25 57.1 8.25 54.7 8.25 53.05 10.05 51.4 11.8 51.4 14.6 51.4 17.3 53.15 19.1 54.85 20.9 57.15 20.9 58.2 20.9 59.1 20.55 60 20.15 60.9 19.35
L 60.9 20.6 63.9 20.6 63.9 8.55 60.9 8.55
M 55.35 12.05
Q 56.3 11.05 57.7 11.05 59.15 11.05 60.05 12 61 13 61 14.55 61 16.15 60.05 17.15 59.15 18.15 57.7 18.15 56.3 18.15 55.4 17.15 54.45 16.15 54.45 14.55 54.45 13 55.35 12.05
M 72.65 11
L 72.65 8.4 70.85 8.4 70.85 4 67.8 4 67.8 8.4 66.25 8.4 66.25 11 67.8 11 67.8 16.45
Q 67.8 18.15 68.15 19 68.5 19.85 69.2 20.3 69.95 20.75 71 20.75 71.9 20.75 73.25 20.3
L 73.25 17.95
Q 72.55 18.3 72 18.3 71.4 18.3 71.1 17.95 70.85 17.6 70.85 16.65
L 70.85 11 72.65 11 Z"/>
</g>
</defs>

<g transform="matrix( 1.753173828125, 0, 0, 1.750579833984375, 0,3.9) ">
<g transform="matrix( 1, 0, 0, 1, 0,0) ">
<use xlink:href="#icons_xatsat_0_Layer2_0_FILL"/>
</g>

<g transform="matrix( 1, 0, 0, 1, 0,0) ">
<use xlink:href="#icons_xatsat_0_Layer1_0_FILL"/>
</g>

<g transform="matrix( 1, 0, 0, 1, 0,0) ">
<use xlink:href="#icons_xatsat_0_Layer0_0_FILL"/>
</g>
</g>
</svg>
