
<svg xmlns="http://www.w3.org/2000/svg" version="1.1" xmlns:xlink="http://www.w3.org/1999/xlink" preserveAspectRatio="none" x="0px" y="0px" width="40px" height="40px" viewBox="0 0 40 40">
<defs>
<linearGradient id="Gradient_1" gradientUnits="userSpaceOnUse" x1="6.1" y1="-4.187499999999999" x2="6.1" y2="-18.0125" spreadMethod="pad">
<stop  offset="20.392156862745097%" stop-color="#FFFFFF" stop-opacity="0"/>

<stop  offset="73.72549019607843%" stop-color="#FFFFFF" stop-opacity="0.9490196078431372"/>

<stop  offset="100%" stop-color="#FFFFFF" stop-opacity="0.6509803921568628"/>

<stop  offset="100%" stop-color="#000000" stop-opacity="0.25098039215686274"/>
</linearGradient>

<g id="Extra_Symbols__Ignore_This_Folder__Symbols__App_Icons_PrivateCIcon2_0_Layer2_0_FILL">
<path fill="#0099FF" stroke="none" d="
M 7.4 -16.95
Q 6.55 -17.05 5.9 -17.05 0.25 -17.05 -3.8 -14 -7.8 -10.9 -7.8 -6.55 -7.8 -3.75 -6.1 -1.4 -5.15 -0.1 -3.8 1 0.25 4.1 5.9 4.1 7.2 4.1 8.4 4 12.05 7.8 17.1 8.55 13.65 5.55 13.25 2.5 14.5 1.85 15.6 1 19.6 -2.05 19.6 -6.55 19.6 -10.9 15.6 -14 12.05 -16.7 7.4 -16.95 Z"/>
</g>

<g id="Extra_Symbols__Ignore_This_Folder__Symbols__App_Icons_PrivateCIcon2_0_Layer0_0_FILL">
<path fill="url(#Gradient_1)" stroke="none" d="
M 16.75 -7.2
Q 16.95 -7.85 16.95 -8.65 16.95 -11.3 13.8 -13.2 10.55 -15.1 6.1 -15.1 1.7 -15.1 -1.6 -13.2 -4.75 -11.3 -4.75 -8.65 -4.75 -7.75 -4.4 -7.05
L 16.75 -7.2 Z"/>
</g>

<path id="Extra_Symbols__Ignore_This_Folder__Symbols__App_Icons_PrivateCIcon2_0_Layer2_0_1_STROKES" stroke="#515151" stroke-opacity="0.6509803921568628" stroke-width="1" stroke-linejoin="round" stroke-linecap="round" fill="none" d="
M -6.1 -1.4
Q -5.15 -0.1 -3.8 1 0.25 4.1 5.9 4.1 7.2 4.1 8.4 4 12.05 7.8 17.1 8.55 13.65 5.55 13.25 2.5 14.5 1.85 15.6 1 19.6 -2.05 19.6 -6.55 19.6 -10.9 15.6 -14 12.05 -16.7 7.4 -16.95 6.55 -17.05 5.9 -17.05 0.25 -17.05 -3.8 -14 -7.8 -10.9 -7.8 -6.55 -7.8 -3.75 -6.1 -1.4 Z"/>
</defs>

<g transform="matrix( -1.35137939453125, 0, 0, 1.2856903076171875, 28.5,25.45) ">
<g transform="matrix( 1, 0, 0, 1, 0,0) ">
<use xlink:href="#Extra_Symbols__Ignore_This_Folder__Symbols__App_Icons_PrivateCIcon2_0_Layer2_0_FILL"/>

<use xlink:href="#Extra_Symbols__Ignore_This_Folder__Symbols__App_Icons_PrivateCIcon2_0_Layer2_0_1_STROKES"/>
</g>

<g transform="matrix( 1, 0, 0, 1, 0,0) ">
<use xlink:href="#Extra_Symbols__Ignore_This_Folder__Symbols__App_Icons_PrivateCIcon2_0_Layer0_0_FILL"/>
</g>
</g>
</svg>
