
<svg xmlns="http://www.w3.org/2000/svg" version="1.1" xmlns:xlink="http://www.w3.org/1999/xlink" preserveAspectRatio="none" x="0px" y="0px" width="40px" height="40px" viewBox="0 0 40 40">
<defs>
<g id="Layer0_0_FILL">
<path fill="#FFFFFF" stroke="none" d="
M 20 28
Q 18.35 28 17.2 29.15 16 30.35 16 32 16 33.65 17.2 34.8 18.35 36 20 36 21.65 36 22.85 34.8 24 33.65 24 32 24 30.35 22.85 29.15 21.65 28 20 28
M 24 20
Q 24 18.35 22.85 17.15 21.65 16 20 16 18.35 16 17.2 17.15 16 18.35 16 20 16 21.65 17.2 22.8 18.35 24 20 24 21.65 24 22.85 22.8 24 21.65 24 20
M 24 8
Q 24 7.8 24 7.65 23.9 6.2 22.85 5.15 21.65 4 20 4 18.35 4 17.2 5.15 16.15 6.2 16.05 7.65 16 7.8 16 8 16 9.65 17.2 10.8 18.35 12 20 12 21.65 12 22.85 10.8 24 9.65 24 8 Z"/>
</g>
</defs>

<g transform="matrix( 1, 0, 0, 1, 0,0) ">
<use xlink:href="#Layer0_0_FILL"/>
</g>
</svg>
