
<svg xmlns="http://www.w3.org/2000/svg" version="1.1" xmlns:xlink="http://www.w3.org/1999/xlink" preserveAspectRatio="none" x="0px" y="0px" width="40px" height="40px" viewBox="0 0 40 40">
<defs>
<g id="Extra_Symbols__Ignore_This_Folder___App_Icons_plus_0_Layer0_0_FILL">
<path fill="#00FF33" stroke="none" d="
M 23.8 -6.3
L 9.8 -6.3 9.8 -20.1 -0.55 -20.1 -0.55 -6.3 -4.5 -6.3
Q -9.3470703125 -6.302734375 -14.2 -6.3
L -14.2 4.05 -0.55 4.05 -0.55 17.9 9.8 17.9 9.8 4.05 23.8 4.05 23.8 -6.3 Z"/>
</g>

<path id="Extra_Symbols__Ignore_This_Folder___App_Icons_plus_0_Layer0_0_1_STROKES" stroke="#333333" stroke-opacity="0.45098039215686275" stroke-width="1" stroke-linejoin="round" stroke-linecap="round" fill="none" d="
M 23.8 -6.3
L 23.8 4.05 9.8 4.05 9.8 17.9 -0.55 17.9 -0.55 4.05 -14.2 4.05 -14.2 -6.3
Q -9.3470703125 -6.302734375 -4.5 -6.3
L -0.55 -6.3 -0.55 -20.1 9.8 -20.1 9.8 -6.3 23.8 -6.3 Z"/>
</defs>

<g transform="matrix( 1, 0, 0, 1, 19.9,20.65) ">
<g transform="matrix( 0.5896759033203125, 0, 0, 0.5896759033203125, -2.85,0.65) ">
<g transform="matrix( 1, 0, 0, 1, 0,0) ">
<use xlink:href="#Extra_Symbols__Ignore_This_Folder___App_Icons_plus_0_Layer0_0_FILL"/>

<use xlink:href="#Extra_Symbols__Ignore_This_Folder___App_Icons_plus_0_Layer0_0_1_STROKES"/>
</g>
</g>
</g>
</svg>
