
<svg xmlns="http://www.w3.org/2000/svg" version="1.1" xmlns:xlink="http://www.w3.org/1999/xlink" preserveAspectRatio="none" x="0px" y="0px" width="40px" height="40px" viewBox="0 0 40 40">
<defs>
<g id="Mobile_Icon_Symbols_actBan_0_Layer0_0_FILL">
<path fill="#ce0008" stroke="none" d="
M 10.7 -10.35
L 10.2 -10.8 9.3 -10.8 8.85 -11.25 8.85 -11.7 7.95 -13.05
Q 4.35 -9.9 -0.6 -4.45 -2.85 -7.6 -5.1 -10.8
L -5.5 -11.25
Q -6.4 -11.25 -6.85 -10.35
L -6.85 -9.9
Q -7.3 -9.9 -7.3 -10.35 -7.75 -10.35 -7.75 -10.8 -8.15 -9.9 -9.15 -9 -8.15 -5.35 -5.1 0.4 -8.7 4.55 -10.9 7.65 -10.9 8.05 -10.5 8.5 -10.05 9.4 -10.5 9.4 -10.9 9.85 -10.5 10.3 -10.5 10.7 -9.6 11.75 -9.15 11.75 -8.7 11.75
L -8.15 11.75
Q -8.7 12.2 -8.15 12.65 -7.75 12.65 -7.75 13.1 -7.3 13.1 -6.85 12.2 -5.5 9.85 -2 5.4 1.25 9.85 2.15 10.7 2.55 11.25 3 10.7 3.45 10.3 3.9 9.85 4.35 9.4 4.35 9.85 4.35 10.3 4.75 10.3 5.2 10.7 5.2 10.3 5.65 9.85 6.1 9.4 5.65 8.95 6.1 8.95 6.1 8.5 6.55 8.5 7 8.5 7 8.05 7.45 7.65 7.95 7.15 7.95 6.75 7.45 6.25 5.65 4.05 2.55 0 7.45 -5.85 10.2 -8.5
L 10.2 -9 10.7 -9.4
Q 11.15 -9.9 10.7 -10.35 Z"/>
</g>

<path id="Mobile_Icon_Symbols_actBan_0_Layer0_0_1_STROKES" stroke="#333333" stroke-opacity="0.45098039215686275" stroke-width="1" stroke-linejoin="round" stroke-linecap="round" fill="none" d="
M 10.7 -10.35
Q 11.15 -9.9 10.7 -9.4
L 10.2 -9 10.2 -8.5
Q 7.45 -5.85 2.55 0 5.65 4.05 7.45 6.25 7.95 6.75 7.95 7.15 7.45 7.65 7 8.05 7 8.5 6.55 8.5 6.1 8.5 6.1 8.95 5.65 8.95 6.1 9.4 5.65 9.85 5.2 10.3 5.2 10.7 4.75 10.3 4.35 10.3 4.35 9.85 4.35 9.4 3.9 9.85 3.45 10.3 3 10.7 2.55 11.25 2.15 10.7 1.25 9.85 -2 5.4 -5.5 9.85 -6.85 12.2 -7.3 13.1 -7.75 13.1 -7.75 12.65 -8.15 12.65 -8.7 12.2 -8.15 11.75
L -8.7 11.75
Q -9.15 11.75 -9.6 11.75 -10.5 10.7 -10.5 10.3 -10.9 9.85 -10.5 9.4 -10.05 9.4 -10.5 8.5 -10.9 8.05 -10.9 7.65 -8.7 4.55 -5.1 0.4 -8.15 -5.35 -9.15 -9 -8.15 -9.9 -7.75 -10.8 -7.75 -10.35 -7.3 -10.35 -7.3 -9.9 -6.85 -9.9
L -6.85 -10.35
Q -6.4 -11.25 -5.5 -11.25
L -5.1 -10.8
Q -2.85 -7.6 -0.6 -4.45 4.35 -9.9 7.95 -13.05
L 8.85 -11.7 8.85 -11.25 9.3 -10.8 10.2 -10.8 10.7 -10.35 Z"/>
</defs>

<g transform="matrix( 1, 0, 0, 1, 20,20) ">
<g transform="matrix( 1, 0, 0, 1, 0,0) ">
<use xlink:href="#Mobile_Icon_Symbols_actBan_0_Layer0_0_FILL"/>

<use xlink:href="#Mobile_Icon_Symbols_actBan_0_Layer0_0_1_STROKES"/>
</g>
</g>
</svg>
