
<svg xmlns="http://www.w3.org/2000/svg" version="1.1" xmlns:xlink="http://www.w3.org/1999/xlink" preserveAspectRatio="none" x="0px" y="0px" width="40px" height="40px" viewBox="0 0 40 40">
<defs>
<radialGradient id="Gradient_1" gradientUnits="userSpaceOnUse" cx="0" cy="0" r="9.8" fx="0" fy="0" gradientTransform="matrix( 0.9999999999999999, 0, 0, 0.5255102040816326, 16.45,9.15) " spreadMethod="pad">
<stop  offset="0%" stop-color="#FFEFCC"/>

<stop  offset="100%" stop-color="#E8BD17"/>
</radialGradient>

<linearGradient id="Gradient_2" gradientUnits="userSpaceOnUse" x1="0" y1="13.85" x2="32.6" y2="13.85" spreadMethod="pad">
<stop  offset="1.5686274509803921%" stop-color="#E8BD17"/>

<stop  offset="47.05882352941177%" stop-color="#FFEFCC"/>

<stop  offset="100%" stop-color="#E8BD17"/>
</linearGradient>

<radialGradient id="Gradient_3" gradientUnits="userSpaceOnUse" cx="0" cy="0" r="16.90144686853762" fx="0" fy="0" gradientTransform="matrix( 0.8660501147536664, 0.49995719690305596, -0.4112073986362413, 0.7122171310911878, 0,0) " spreadMethod="pad">
<stop  offset="0%" stop-color="#FFFFFF"/>

<stop  offset="100%" stop-color="#FFFFFF" stop-opacity="0"/>
</radialGradient>

<radialGradient id="Gradient_4" gradientUnits="userSpaceOnUse" cx="0" cy="0" r="21.825000000000003" fx="0" fy="0" gradientTransform="matrix( 0.9999999999999999, 0, 0, 0.9999999999999999, 0,0) " spreadMethod="pad">
<stop  offset="0%" stop-color="#FFFFFF"/>

<stop  offset="100%" stop-color="#FFFFFF" stop-opacity="0"/>
</radialGradient>

<filter id="Filter_1" x="-20%" y="-20%" width="140%" height="140%" color-interpolation-filters="sRGB">
<feColorMatrix in="SourceGraphic" type="matrix" values="1 0 0 0 0 0 1 0 0 0 0 0 1 0 0 0 0 0 0.49 0" result="result1"/>
</filter>

<g id="icons_CoinNew_0_Layer1_0_FILL">
<path fill="url(#Gradient_1)" stroke="none" d="
M 27.85 13.05
Q 32.5419921875 10.8275390625 32.6 7.7
L 32.6 7.65
Q 32.6 4.5 27.85 2.25 23.1 0 16.35 0 9.6 0 4.85 2.25 0.1755859375 4.4642578125 0.1 7.55
L 0.1 7.65
Q 0.1 10.8 4.85 13.05 9.6 15.3 16.35 15.3 23.1 15.3 27.85 13.05 Z"/>

<path fill="url(#Gradient_2)" stroke="none" d="
M 32.6 7.7
Q 32.5419921875 10.8275390625 27.85 13.05 23.1 15.3 16.35 15.3 9.6 15.3 4.85 13.05 0.1 10.8 0.1 7.65
L 0 12 0.1 12.55
Q 0.213671875 15.60390625 4.85 17.8 9.6 20.05 16.35 20.05 23.1 20.05 27.85 17.8 32.486328125 15.60390625 32.6 12.55
L 32.6 7.7 Z"/>
</g>

<g id="Extra_Symbols__Ignore_This_Folder__Symbols_smilies_Shine2_0_Layer1_0_FILL">
<path fill="url(#Gradient_3)" stroke="none" d="
M 4.65 -1.85
L 2 -4.85 2 -24.25 -2 -24.25 -2 -4.85 -4.7 -1.85 -29.3 -1.8 -29.3 1.85 -4.7 1.85 -2 4.85 -2 28.9 2 28.9 2 4.85 4.7 1.85 4.65 1.85 29.05 1.85 29.05 -1.85 4.65 -1.85 Z"/>
</g>

<g id="Extra_Symbols__Ignore_This_Folder__Symbols_smilies_Shine2_0_Layer0_0_FILL">
<path fill="url(#Gradient_4)" stroke="none" d="
M 1.55 -3.65
Q 1.2 -3.8 1.15 -4.1 1.175 -4.111328125 1.15 -4.15
L 1.15 -24.25 -1.25 -24.25 -1.25 -4.15
Q -1.25 -3.95 -1.55 -3.7
L -3.6 -1.35
Q -3.8 -1.05 -4.05 -1.05
L -23.7 -1.05 -23.7 1.1 -4.05 1.1
Q -3.85 1.1 -3.6 1.4
L -1.75 3.65
Q -1.25 3.7 -1.25 4.15
L -1.25 24.25 1.15 24.25 1.15 4.15
Q 1.2 3.7 1.65 3.65
L 3.45 1.55
Q 3.45 1.1 3.95 1.1
L 24.25 1.1 24.25 -1.05 3.95 -1.05
Q 3.55 -1.25 3.5 -1.3
L 1.55 -3.65 Z"/>
</g>

<path id="icons_CoinNew_0_Layer1_0_1_STROKES" stroke="#333333" stroke-opacity="0.45098039215686275" stroke-width="1" stroke-linejoin="round" stroke-linecap="round" fill="none" d="
M 32.6 7.725
Q 32.5419921875 10.8275390625 27.85 13.05 23.1 15.3 16.35 15.3 9.6 15.3 4.85 13.05 0.1 10.8 0.1 7.65
L 0 12
M 0.1 12.55
Q 0.213671875 15.60390625 4.85 17.8 9.6 20.05 16.35 20.05 23.1 20.05 27.85 17.8 32.486328125 15.60390625 32.6 12.55
L 32.6 7.725 32.6 7.65
Q 32.6 4.5 27.85 2.25 23.1 0 16.35 0 9.6 0 4.85 2.25 0.1755859375 4.4642578125 0.1 7.55
L 0.1 7.65"/>
</defs>

<g transform="matrix( 1.226959228515625, 0, 0, 1.226959228515625, 6.1,0.85) ">
<g transform="matrix( 0.5287933349609375, 0, 0, 0.529205322265625, -1.3,15.75) ">
<g transform="matrix( 1, 0, 0, 1, 0,0) ">
<use xlink:href="#icons_CoinNew_0_Layer1_0_FILL"/>

<use xlink:href="#icons_CoinNew_0_Layer1_0_1_STROKES"/>
</g>

<g transform="matrix( 0.6198577880859375, 0, 0, 0.62030029296875, 8.1,16.35) ">
<g transform="matrix( 1, 0, 0, 1, 0,0) ">
<use filter="url(#Filter_1)" xlink:href="#Extra_Symbols__Ignore_This_Folder__Symbols_smilies_Shine2_0_Layer1_0_FILL"/>
</g>

<g transform="matrix( 1, 0, 0, 1, 0,0) ">
<use filter="url(#Filter_1)" xlink:href="#Extra_Symbols__Ignore_This_Folder__Symbols_smilies_Shine2_0_Layer0_0_FILL"/>
</g>
</g>
</g>

<g transform="matrix( 0.5287933349609375, 0, 0, 0.529205322265625, 6.65,12.4) ">
<g transform="matrix( 1, 0, 0, 1, 0,0) ">
<use xlink:href="#icons_CoinNew_0_Layer1_0_FILL"/>

<use xlink:href="#icons_CoinNew_0_Layer1_0_1_STROKES"/>
</g>

<g transform="matrix( 0.6198577880859375, 0, 0, 0.62030029296875, 8.1,16.35) ">
<g transform="matrix( 1, 0, 0, 1, 0,0) ">
<use filter="url(#Filter_1)" xlink:href="#Extra_Symbols__Ignore_This_Folder__Symbols_smilies_Shine2_0_Layer1_0_FILL"/>
</g>

<g transform="matrix( 1, 0, 0, 1, 0,0) ">
<use filter="url(#Filter_1)" xlink:href="#Extra_Symbols__Ignore_This_Folder__Symbols_smilies_Shine2_0_Layer0_0_FILL"/>
</g>
</g>
</g>

<g transform="matrix( 0.5287933349609375, 0, 0, 0.529205322265625, -0.15,8.4) ">
<g transform="matrix( 1, 0, 0, 1, 0,0) ">
<use xlink:href="#icons_CoinNew_0_Layer1_0_FILL"/>

<use xlink:href="#icons_CoinNew_0_Layer1_0_1_STROKES"/>
</g>

<g transform="matrix( 0.6198577880859375, 0, 0, 0.62030029296875, 8.1,16.35) ">
<g transform="matrix( 1, 0, 0, 1, 0,0) ">
<use filter="url(#Filter_1)" xlink:href="#Extra_Symbols__Ignore_This_Folder__Symbols_smilies_Shine2_0_Layer1_0_FILL"/>
</g>

<g transform="matrix( 1, 0, 0, 1, 0,0) ">
<use filter="url(#Filter_1)" xlink:href="#Extra_Symbols__Ignore_This_Folder__Symbols_smilies_Shine2_0_Layer0_0_FILL"/>
</g>
</g>
</g>

<g transform="matrix( 0.5287933349609375, 0, 0, 0.529205322265625, 6.65,2.5) ">
<g transform="matrix( 1, 0, 0, 1, 0,0) ">
<use xlink:href="#icons_CoinNew_0_Layer1_0_FILL"/>

<use xlink:href="#icons_CoinNew_0_Layer1_0_1_STROKES"/>
</g>

<g transform="matrix( 0.6198577880859375, 0, 0, 0.62030029296875, 8.1,16.35) ">
<g transform="matrix( 1, 0, 0, 1, 0,0) ">
<use filter="url(#Filter_1)" xlink:href="#Extra_Symbols__Ignore_This_Folder__Symbols_smilies_Shine2_0_Layer1_0_FILL"/>
</g>

<g transform="matrix( 1, 0, 0, 1, 0,0) ">
<use filter="url(#Filter_1)" xlink:href="#Extra_Symbols__Ignore_This_Folder__Symbols_smilies_Shine2_0_Layer0_0_FILL"/>
</g>
</g>
</g>

<g transform="matrix( 0.5287933349609375, 0, 0, 0.529205322265625, 3.6,0.25) ">
<g transform="matrix( 1, 0, 0, 1, 0,0) ">
<use xlink:href="#icons_CoinNew_0_Layer1_0_FILL"/>

<use xlink:href="#icons_CoinNew_0_Layer1_0_1_STROKES"/>
</g>

<g transform="matrix( 0.6198577880859375, 0, 0, 0.62030029296875, 8.1,16.35) ">
<g transform="matrix( 1, 0, 0, 1, 0,0) ">
<use filter="url(#Filter_1)" xlink:href="#Extra_Symbols__Ignore_This_Folder__Symbols_smilies_Shine2_0_Layer1_0_FILL"/>
</g>

<g transform="matrix( 1, 0, 0, 1, 0,0) ">
<use filter="url(#Filter_1)" xlink:href="#Extra_Symbols__Ignore_This_Folder__Symbols_smilies_Shine2_0_Layer0_0_FILL"/>
</g>
</g>
</g>
</g>
</svg>
