
<svg xmlns="http://www.w3.org/2000/svg" version="1.1" xmlns:xlink="http://www.w3.org/1999/xlink" preserveAspectRatio="none" x="0px" y="0px" width="40px" height="40px" viewBox="0 0 40 40">
<defs>
<g id="Mobile_Icon_Symbols_actDivorce_0_Layer0_0_FILL">
<path fill="#FF0000" stroke="none" d="
M 2.55 7.1
L 2.55 5.65 -3.15 1.05 -1.25 -7.7
Q -4.55 -11.65 -9.2 -9.15 -21.6 0.3 -0.3 10.95
L 2.55 7.1
M -12.5 -3.95
Q -8.95 -9.55 -3.65 -6.75 -8.95 -9.55 -12.5 -3.95
M 12.65 -9.3
Q 11.85 -10.25 10.75 -10.95 9.45 -11.8 7.6 -12.3 2.3 -12.2 1.05 -7
L 0.1 -0.75 6.4 3.9
Q 11.25 -1.4 12.65 -9.3
M 2.95 -7.9
Q 6.35 -12.3 11.5 -9.75 6.35 -12.3 2.95 -7.9 Z"/>

<path fill="#C20303" stroke="none" d="
M 2.55 12.3
L 2.55 7.1 -0.3 10.95
Q 1.05 11.6 2.55 12.3
M 6.4 3.9
L 5.1 8.7
Q 16.8 -3.85 12.65 -9.3 11.25 -1.4 6.4 3.9 Z"/>
</g>

<path id="Mobile_Icon_Symbols_actDivorce_0_Layer0_0_1_STROKES" stroke="#FFFFFF" stroke-opacity="0.6509803921568628" stroke-width="1" stroke-linejoin="round" stroke-linecap="round" fill="none" d="
M 2.95 -7.9
Q 6.35 -12.3 11.5 -9.75
M -12.5 -3.95
Q -8.95 -9.55 -3.65 -6.75"/>

<path id="Mobile_Icon_Symbols_actDivorce_0_Layer0_0_2_STROKES" stroke="#333333" stroke-opacity="0.45098039215686275" stroke-width="1" stroke-linejoin="round" stroke-linecap="round" fill="none" d="
M 6.4 3.9
L 0.1 -0.75 1.05 -7
Q 2.3 -12.2 7.6 -12.3 9.45 -11.8 10.75 -10.95 11.85 -10.25 12.65 -9.3 16.8 -3.85 5.1 8.7
L 6.4 3.9 Z
M 2.55 7.1
L 2.55 12.3
Q 1.05 11.6 -0.3 10.95 -21.6 0.3 -9.2 -9.15 -4.55 -11.65 -1.25 -7.7
L -3.15 1.05 2.55 5.65 2.55 7.1 Z"/>
</defs>

<g transform="matrix( 1, 0, 0, 1, 20.25,22.45) ">
<g transform="matrix( 1, 0, 0, 1, 0,0) ">
<use xlink:href="#Mobile_Icon_Symbols_actDivorce_0_Layer0_0_FILL"/>

<use xlink:href="#Mobile_Icon_Symbols_actDivorce_0_Layer0_0_1_STROKES"/>

<use xlink:href="#Mobile_Icon_Symbols_actDivorce_0_Layer0_0_2_STROKES"/>
</g>
</g>
</svg>
