
<svg xmlns="http://www.w3.org/2000/svg" version="1.1" xmlns:xlink="http://www.w3.org/1999/xlink" preserveAspectRatio="none" x="0px" y="0px" width="40px" height="40px" viewBox="0 0 40 40">
<defs>
<linearGradient id="Gradient_1" gradientUnits="userSpaceOnUse" x1="-0.8374999999999999" y1="8.450000000000001" x2="-5.362500000000001" y2="-8.450000000000001" spreadMethod="pad">
<stop  offset="0%" stop-color="#000000"/>

<stop  offset="56.86274509803921%" stop-color="#B67729"/>
</linearGradient>

<g id="Mobile_Icon_Symbols_actKick_0_Layer0_0_FILL">
<path fill="url(#Gradient_1)" stroke="none" d="
M 6.45 -3.9
Q 5.7 -2.7 6.1 -1.5 5.7 -2.7 6.45 -3.9 5.75 -4 4.45 -3.65
L 1.05 -2.75
Q -1.1 -0.8 -1 2.4 -1.1 -0.8 1.05 -2.75
L -1.3 -4.05
Q -4.4 -2.3 -5.1 1.3 -4.4 -2.3 -1.3 -4.05
L -5.35 -6
Q -7.8 -4.7 -8.65 -1.8 -7.8 -4.7 -5.35 -6
L -6.7 -11.2 -17.95 -7.95 -16.2 -1.65
Q -19.05 2.75 -15.7 11.2
L 11.8 3.65 10.4 -1.85
Q 9.2 -4.2 6.45 -3.9
M -8.7 4.65
L -7.9 7.85 -8.7 4.65
Q -10 1.2 -14.15 2.95 -10 1.2 -8.7 4.65 Z"/>
</g>

<path id="Mobile_Icon_Symbols_actKick_0_Layer0_0_1_STROKES" stroke="#333333" stroke-width="1" stroke-linejoin="round" stroke-linecap="round" fill="none" d="
M 6.45 -3.9
Q 5.7 -2.7 6.1 -1.5
M -5.35 -6
L -1.3 -4.05 1.05 -2.75 4.45 -3.65
Q 5.75 -4 6.45 -3.9
M -8.65 -1.8
Q -7.8 -4.7 -5.35 -6
M -1.3 -4.05
Q -4.4 -2.3 -5.1 1.3
M -1 2.4
Q -1.1 -0.8 1.05 -2.75"/>

<path id="Mobile_Icon_Symbols_actKick_0_Layer0_0_2_STROKES" stroke="#333333" stroke-opacity="0.45098039215686275" stroke-width="1" stroke-linejoin="round" stroke-linecap="round" fill="none" d="
M 6.45 -3.9
Q 9.2 -4.2 10.4 -1.85
L 11.8 3.65 -15.7 11.2
Q -19.05 2.75 -16.2 -1.65
L -17.95 -7.95 -6.7 -11.2 -5.35 -6
M -14.15 2.95
Q -10 1.2 -8.7 4.65
L -7.9 7.85"/>

<path id="Mobile_Icon_Symbols_actKick_0_Layer0_0_3_STROKES" stroke="#FFCC00" stroke-width="1" stroke-linejoin="round" stroke-linecap="round" fill="none" d="
M 6.2 -9.1
Q 9.15 -4.45 13.55 -8 10.7 -1.9 18 -1.7 12.1 0.65 15.2 4.2"/>
</defs>

<g transform="matrix( 1, 0, 0, 1, 20.05,23.35) ">
<g transform="matrix( 1, 0, 0, 1, 0,0) ">
<use xlink:href="#Mobile_Icon_Symbols_actKick_0_Layer0_0_FILL"/>

<use xlink:href="#Mobile_Icon_Symbols_actKick_0_Layer0_0_1_STROKES"/>

<use xlink:href="#Mobile_Icon_Symbols_actKick_0_Layer0_0_2_STROKES"/>

<use xlink:href="#Mobile_Icon_Symbols_actKick_0_Layer0_0_3_STROKES"/>
</g>
</g>
</svg>
