
<svg xmlns="http://www.w3.org/2000/svg" version="1.1" xmlns:xlink="http://www.w3.org/1999/xlink" preserveAspectRatio="none" x="0px" y="0px" width="40px" height="40px" viewBox="0 0 40 40">
<defs>
<radialGradient id="Gradient_1" gradientUnits="userSpaceOnUse" cx="0" cy="0" r="9.667964172978714" fx="0" fy="0" gradientTransform="matrix( 0.4835557844811113, -0.8753135457051132, 0.5145861022018243, 0.28185871929647666, 8.15,13.8) " spreadMethod="pad">
<stop  offset="0%" stop-color="#000000" stop-opacity="0.4117647058823529"/>

<stop  offset="100%" stop-color="#013198" stop-opacity="0"/>
</radialGradient>

<radialGradient id="Gradient_2" gradientUnits="userSpaceOnUse" cx="0" cy="0" r="5.021096120370531" fx="0" fy="0" gradientTransform="matrix( 0.7767228323269383, -0.6298425531369083, 0.4008088974507598, 0.4929202589767108, 6.9,5.15) " spreadMethod="pad">
<stop  offset="0%" stop-color="#000000" stop-opacity="0.4235294117647059"/>

<stop  offset="100%" stop-color="#013198" stop-opacity="0"/>
</radialGradient>

<g id="Extra_Symbols__Ignore_This_Folder___Extra_pawng_0_Layer2_0_FILL">
<path fill="#FF6600" stroke="none" d="
M 8.8 3.9
Q 8.8 2.5 7.8 1.5 6.8 0.5 5.4 0.5 4 0.5 3 1.5 2 2.5 2 3.9 2 5.3 3 6.3 4 7.3 5.4 7.3 3.75 7.45 2.2 9.65 0.45 12.1 0.5 15.4 0.55 16.4 5.65 16.5 10.75 16.6 10.7 15.55 10.5 12.2 9 9.75 7.5 7.3 5.7 7.3 6.9 7.2 7.8 6.3 8.8 5.3 8.8 3.9 Z"/>
</g>

<g id="Extra_Symbols__Ignore_This_Folder___Extra_pawng_0_Layer1_0_FILL">
<path fill="#000000" fill-opacity="0.6509803921568628" stroke="none" d="
M 8.9 3.9
Q 8.930859375 2.4423828125 7.9 1.4 6.857421875 0.3689453125 5.4 0.35 3.9423828125 0.3689453125 2.9 1.4 1.8689453125 2.4423828125 1.85 3.9 1.8689453125 5.357421875 2.9 6.4 3.655859375 7.1474609375 4.6 7.35 3.3322265625 7.8318359375 2.1 9.55 0.326171875 12.05703125 0.35 15.4 0.4080078125 16.519140625 5.65 16.6 8.2103515625 16.6701171875 9.45 16.4 10.877734375 16.1701171875 10.8 15.55 10.61953125 12.1578125 9.1 9.65 7.8826171875 7.6861328125 6.45 7.25 7.2556640625 7.0330078125 7.9 6.4 8.930859375 5.357421875 8.9 3.9
M 7.7 1.6
Q 8.6689453125 2.557421875 8.65 3.9 8.6689453125 5.2423828125 7.7 6.2 6.8443359375 7.0720703125 5.7 7.15 5.641796875 7.183203125 5.6 7.2 5.5697265625 7.25625 5.55 7.3 5.5828125 7.3576171875 5.6 7.4 5.6556640625 7.4298828125 5.7 7.4 7.441015625 7.4423828125 8.9 9.8 10.3802734375 12.2421875 10.55 15.55 10.57421875 15.979296875 9.45 16.2 8.1892578125 16.4296875 5.65 16.35 0.6904296875 16.280859375 0.6 15.4 0.5736328125 12.1427734375 2.3 9.7 3.8046875 7.5814453125 5.4 7.4 5.4583984375 7.416796875 5.5 7.35 5.530078125 7.343359375 5.5 7.3 5.5169921875 7.242578125 5.45 7.2 5.4443359375 7.1701171875 5.4 7.15 4.057421875 7.1689453125 3.1 6.2 2.130859375 5.2423828125 2.1 3.9 2.130859375 2.557421875 3.1 1.6 4.057421875 0.630859375 5.4 0.6 6.7423828125 0.630859375 7.7 1.6 Z"/>

<path fill="url(#Gradient_1)" stroke="none" d="
M 5.5 7.3
Q 5.530078125 7.343359375 5.5 7.35 5.4583984375 7.416796875 5.4 7.4 3.8046875 7.5814453125 2.3 9.7 0.5736328125 12.1427734375 0.6 15.4 0.6904296875 16.280859375 5.65 16.35 8.1892578125 16.4296875 9.45 16.2 10.57421875 15.979296875 10.55 15.55 10.3802734375 12.2421875 8.9 9.8 7.441015625 7.4423828125 5.7 7.4 5.6556640625 7.4298828125 5.6 7.4 5.5828125 7.3576171875 5.55 7.3
L 5.5 7.3
M 2.7 14.9
Q 3 10.65 5.4 9.1 3 10.65 2.7 14.9 Z"/>

<path fill="url(#Gradient_2)" stroke="none" d="
M 8.65 3.9
Q 8.6689453125 2.557421875 7.7 1.6 6.7423828125 0.630859375 5.4 0.6 4.057421875 0.630859375 3.1 1.6 2.130859375 2.557421875 2.1 3.9 2.130859375 5.2423828125 3.1 6.2 4.057421875 7.1689453125 5.4 7.15 5.4443359375 7.1701171875 5.45 7.2 5.5169921875 7.242578125 5.5 7.3
L 5.55 7.3
Q 5.5697265625 7.25625 5.6 7.2 5.641796875 7.183203125 5.7 7.15 6.8443359375 7.0720703125 7.7 6.2 8.6689453125 5.2423828125 8.65 3.9
M 3.7 3.95
Q 3.9 2.65 5 2.1 3.9 2.65 3.7 3.95 Z"/>
</g>

<path id="Extra_Symbols__Ignore_This_Folder___Extra_pawng_0_Layer1_0_1_STROKES" stroke="#FFFFFF" stroke-width="1" stroke-linejoin="round" stroke-linecap="round" fill="none" d="
M 3.7 3.95
Q 3.9 2.65 5 2.1
M 2.7 14.9
Q 3 10.65 5.4 9.1"/>
</defs>

<g transform="matrix( 1, 0, 0, 1, 20.15,21) ">
<g transform="matrix( 1.645263671875, 0, 0, 1.645263671875, -9.25,-14) ">
<g transform="matrix( 1, 0, 0, 1, 0,0) ">
<use xlink:href="#Extra_Symbols__Ignore_This_Folder___Extra_pawng_0_Layer2_0_FILL"/>
</g>

<g transform="matrix( 1, 0, 0, 1, 0,0) ">
<use xlink:href="#Extra_Symbols__Ignore_This_Folder___Extra_pawng_0_Layer1_0_FILL"/>

<use xlink:href="#Extra_Symbols__Ignore_This_Folder___Extra_pawng_0_Layer1_0_1_STROKES"/>
</g>
</g>
</g>
</svg>
