
<svg xmlns="http://www.w3.org/2000/svg" version="1.1" xmlns:xlink="http://www.w3.org/1999/xlink" preserveAspectRatio="none" x="0px" y="0px" width="40px" height="40px" viewBox="0 0 40 40">
<defs>
<g id="Layer1_0_FILL">
<path fill="#333333" fill-opacity="0.24705882352941178" stroke="none" d="
M 33.75 6.15
Q 32.9 5.5 31.95 5.6 30.95 5.5 30.25 6.25
L 18.6 16.5 18.05 14.8
Q 17.85 14.1 17.2 13.6 16.55 13.05 15.75 13.05 15 12.95 14.2 13.35 13.55 13.75 13.3 14.55
L 5.25 31.65
Q 4.75 32.45 5.05 33.4 5.25 34.2 6.1 34.9 6.75 35.4 7.7 35.4 8.65 35.35 9.3 34.7
L 17 27.95 17.25 28.65
Q 17.6 29.6 18.55 30.1 19.4 30.5 20.4 30.35 21.3 30 21.9 29.15
L 34.25 9.65
Q 34.75 8.7 34.6 7.8 34.4 6.75 33.75 6.15
M 33.95 7.85
Q 34.1 8.55 33.65 9.2
L 21.3 28.9
Q 20.9 29.45 20.25 29.65 19.4 29.85 18.75 29.5 18.1 29.1 17.95 28.45
L 17.25 26.9 8.95 34.2
Q 8.3 34.7 7.7 34.7 7.05 34.7 6.45 34.35 5.95 33.9 5.75 33.2 5.55 32.55 5.9 32
L 13.8 14.8
Q 14.05 14.2 14.65 13.95 15.05 13.6 15.7 13.7 16.35 13.75 16.75 14.1 17.25 14.45 17.5 15.05
L 18.25 17.6 30.7 6.65
Q 31.25 6.25 31.95 6.25 32.75 6.15 33.25 6.65 33.8 7.15 33.95 7.85 Z"/>

<path fill="#333333" fill-opacity="0.4980392156862745" stroke="none" d="
M 33.65 9.2
Q 34.1 8.55 33.95 7.85 33.8 7.15 33.25 6.65 32.75 6.15 31.95 6.25 31.25 6.25 30.7 6.65
L 18.25 17.6 17.5 15.05
Q 17.25 14.45 16.75 14.1 16.35 13.75 15.7 13.7 15.05 13.6 14.65 13.95 14.05 14.2 13.8 14.8
L 5.9 32
Q 5.55 32.55 5.75 33.2 5.95 33.9 6.45 34.35 7.05 34.7 7.7 34.7 8.3 34.7 8.95 34.2
L 17.25 26.9 17.95 28.45
Q 18.1 29.1 18.75 29.5 19.4 29.85 20.25 29.65 20.9 29.45 21.3 28.9
L 33.65 9.2
M 33.3 8
Q 33.3 8.35 33.1 8.85
L 20.8 28.45
Q 20.6 28.95 20.1 29 19.55 29.1 19.2 29 18.6 28.65 18.45 28.15
L 17.6 25.7 8.55 33.7
Q 8.1 34 7.7 34.05 7.2 34.05 6.85 33.7 6.45 33.5 6.25 33.05 6.2 32.55 6.45 32.15
L 14.5 15.1
Q 14.65 14.7 15 14.55 15.2 14.25 15.65 14.25 16.05 14.25 16.5 14.6 16.65 14.8 16.75 15.25
L 17.95 18.75 31.2 7.15
Q 31.45 6.8 31.95 6.8 32.45 6.8 32.8 7.15 33.15 7.5 33.3 8 Z"/>

<path fill="#333333" fill-opacity="0.7333333333333333" stroke="none" d="
M 33.1 8.85
Q 33.3 8.35 33.3 8 33.15 7.5 32.8 7.15 32.45 6.8 31.95 6.8 31.45 6.8 31.2 7.15
L 17.95 18.75 16.75 15.25
Q 16.65 14.8 16.5 14.6 16.05 14.25 15.65 14.25 15.2 14.25 15 14.55 14.65 14.7 14.5 15.1
L 6.45 32.15
Q 6.2 32.55 6.25 33.05 6.45 33.5 6.85 33.7 7.2 34.05 7.7 34.05 8.1 34 8.55 33.7
L 17.6 25.7 18.45 28.15
Q 18.6 28.65 19.2 29 19.55 29.1 20.1 29 20.6 28.95 20.8 28.45
L 33.1 8.85
M 32.65 8.15
Q 32.75 8.3 32.6 8.55
L 20.25 28.1
Q 20.1 28.4 19.8 28.45 19.6 28.45 19.4 28.4 19.2 28.25 19.1 28.05
L 17.85 24.55 8.05 33.2
Q 7.8 33.4 7.6 33.4 7.45 33.4 7.25 33.35 7.05 33.15 7.05 32.95 6.95 32.65 7.05 32.5
L 15 15.45
Q 15.05 15.2 15.2 15.1 15.35 15.05 15.65 15.05 15.75 15.05 16.05 15.1 16.15 15.25 16.2 15.55
L 17.7 20 31.6 7.7
Q 31.75 7.5 31.95 7.6 32.25 7.5 32.4 7.7 32.6 7.8 32.65 8.15 Z"/>

<path fill="#FFFF00" stroke="none" d="
M 32.6 8.55
Q 32.75 8.3 32.65 8.15 32.6 7.8 32.4 7.7 32.25 7.5 31.95 7.6 31.75 7.5 31.6 7.7
L 17.7 20 16.2 15.55
Q 16.15 15.25 16.05 15.1 15.75 15.05 15.65 15.05 15.35 15.05 15.2 15.1 15.05 15.2 15 15.45
L 7.05 32.5
Q 6.95 32.65 7.05 32.95 7.05 33.15 7.25 33.35 7.45 33.4 7.6 33.4 7.8 33.4 8.05 33.2
L 17.85 24.55 19.1 28.05
Q 19.2 28.25 19.4 28.4 19.6 28.45 19.8 28.45 20.1 28.4 20.25 28.1
L 32.6 8.55 Z"/>
</g>
</defs>

<g transform="matrix( 1, 0, 0, 1, 0,0) ">
<use xlink:href="#Layer1_0_FILL"/>
</g>
</svg>
