
<svg xmlns="http://www.w3.org/2000/svg" version="1.1" xmlns:xlink="http://www.w3.org/1999/xlink" preserveAspectRatio="none" x="0px" y="0px" width="40px" height="40px" viewBox="0 0 40 40">
<defs>
<g id="Mobile_Icon_Symbols_actTransfer_0_Layer0_0_FILL">
<path fill="#FF0000" stroke="none" d="
M 7.5 -3.9
Q 7.15 -3.55 7.15 -3.1
L 7.15 0 -13.8 0
Q -13.95 -0.85 -13.95 -1.2 -13.95 -2.55 -13 -3.55 -12.1 -4.4 -10.95 -4.5
L -7.35 -4.5
Q -7.5 -5.55 -7.85 -5.95 -8.5 -6.6 -9.2 -6.95 -9.4 -7.1 -9.65 -7.15 -10.65 -7.55 -11.75 -7.55 -11.95 -7.55 -12.1 -7.55 -14.15 -7.45 -15.65 -5.95 -17.25 -4.35 -17.25 -2.05 -17.25 -1.55 -17.1 -0.85 -16.85 0.75 -15.6 2 -14.5 3.15 -13 3.5
L 7.15 3.5 7.15 6.3
Q 7.15 6.7 7.5 7.1 7.8 7.45 8.25 7.5 8.65 7.6 9.1 7.35
L 16.7 2.7
Q 17.05 2.4 17.2 2.05 17.3 1.6 17.2 1.25 17.05 0.8 16.7 0.6
L 9.1 -4.2
Q 8.65 -4.45 8.25 -4.4 7.8 -4.3 7.5 -3.9 Z"/>
</g>

<path id="Mobile_Icon_Symbols_actTransfer_0_Layer0_0_1_STROKES" stroke="#333333" stroke-opacity="0.45098039215686275" stroke-width="1" stroke-linejoin="round" stroke-linecap="round" fill="none" d="
M 7.15 6.3
Q 7.15 6.7 7.5 7.1 7.8 7.45 8.25 7.5 8.65 7.6 9.1 7.35
L 16.7 2.7
Q 17.05 2.4 17.2 2.05 17.3 1.6 17.2 1.25 17.05 0.8 16.7 0.6
L 9.1 -4.2
Q 8.65 -4.45 8.25 -4.4 7.8 -4.3 7.5 -3.9 7.15 -3.55 7.15 -3.1
L 7.15 0 -13.8 0
Q -13.95 -0.85 -13.95 -1.2 -13.95 -2.55 -13 -3.55 -12.1 -4.4 -10.95 -4.5
L -7.35 -4.5
Q -7.5 -5.55 -7.85 -5.95 -8.5 -6.6 -9.2 -6.95 -9.4 -7.1 -9.65 -7.15 -10.65 -7.55 -11.75 -7.55 -11.95 -7.55 -12.1 -7.55 -14.15 -7.45 -15.65 -5.95 -17.25 -4.35 -17.25 -2.05 -17.25 -1.55 -17.1 -0.85 -16.85 0.75 -15.6 2 -14.5 3.15 -13 3.5
L 7.15 3.5 7.15 6.3 Z"/>
</defs>

<g transform="matrix( 1, 0, 0, 1, 20.15,22.95) ">
<g transform="matrix( 1, 0, 0, 1, 0,0) ">
<use xlink:href="#Mobile_Icon_Symbols_actTransfer_0_Layer0_0_FILL"/>

<use xlink:href="#Mobile_Icon_Symbols_actTransfer_0_Layer0_0_1_STROKES"/>
</g>
</g>
</svg>
