
<svg xmlns="http://www.w3.org/2000/svg" version="1.1" xmlns:xlink="http://www.w3.org/1999/xlink" preserveAspectRatio="none" x="0px" y="0px" width="19px" height="19px" viewBox="0 0 19 19">
<defs>
<g id="Layer0_0_FILL">
<path fill="#FFFFFF" stroke="none" d="
M 12.8 8.75
Q 15 7.2486328125 15 5.1 15 2.9638671875 12.8 1.45 10.6 -0.0220703125 7.5 -0.05 4.4 -0.0220703125 2.2 1.45 0 2.9638671875 0 5.1 0 7.2486328125 2.2 8.75 2.7798828125 9.1451171875 3.4 9.45 3.2482421875 10.9271484375 1.35 12.35 4.0875 12.0125 6.05 10.15 6.7576171875 10.2498046875 7.5 10.25 10.6 10.2470703125 12.8 8.75 Z"/>
</g>
</defs>

<g transform="matrix( 1.1333160400390625, 0, 0, 1.2661285400390625, 1,2) ">
<g transform="matrix( 1, 0, 0, 1, 0,0) ">
<use xlink:href="#Layer0_0_FILL"/>
</g>
</g>
</svg>
