
<svg xmlns="http://www.w3.org/2000/svg" version="1.1" xmlns:xlink="http://www.w3.org/1999/xlink" preserveAspectRatio="none" x="0px" y="0px" width="19px" height="19px" viewBox="0 0 19 19">
<defs>
<radialGradient id="Gradient_1" gradientUnits="userSpaceOnUse" cx="0" cy="0" r="10.600000000000001" fx="0" fy="0" gradientTransform="matrix( 1, 0, 0, 1, 8.5,8.2) " spreadMethod="pad">
<stop  offset="0%" stop-color="#FEDA18"/>

<stop  offset="69.80392156862744%" stop-color="#FEDA18"/>

<stop  offset="100%" stop-color="#BA9501"/>
</radialGradient>

<linearGradient id="Gradient_2" gradientUnits="userSpaceOnUse" x1="9.35" y1="11.5625" x2="9.35" y2="-2.2625" spreadMethod="pad">
<stop  offset="20.392156862745097%" stop-color="#FFFFFF" stop-opacity="0"/>

<stop  offset="73.72549019607843%" stop-color="#FFFFFF" stop-opacity="0.9490196078431372"/>

<stop  offset="100%" stop-color="#FFFFFF" stop-opacity="0.6509803921568628"/>

<stop  offset="100%" stop-color="#000000" stop-opacity="0.25098039215686274"/>
</linearGradient>

<g id="smilies_smileback_0_Layer2_0_FILL">
<path fill="url(#Gradient_1)" stroke="none" d="
M 16.2 2.75
Q 15.555078125 2.1087890625 14.85 1.6 12.4962890625 -0.03125 9.45 -0.05 9.0818359375 -0.02578125 8.7 0 6.2634765625 0.176171875 4.3 1.5 3.49375 2.03203125 2.75 2.75 2.47109375 3.054296875 2.2 3.35 -0.02109375 5.9759765625 -0.05 9.45 -0.020703125 13.3880859375 2.75 16.15 5.56171875 18.970703125 9.45 18.95 13.4005859375 18.970703125 16.2 16.15 18.9830078125 13.3880859375 18.95 9.45 18.9830078125 5.5494140625 16.2 2.75 Z"/>
</g>

<g id="smilies_smileback_0_Layer1_0_FILL">
<path fill="url(#Gradient_2)" stroke="none" d="
M 16.95 8.55
Q 17.1 7.9 17.1 7.1 17.1 4.45 14.85 2.55 12.55 0.65 9.35 0.65 6.2 0.65 3.85 2.55 1.6 4.45 1.6 7.1 1.6 8 1.85 8.7
L 16.95 8.55 Z"/>
</g>

<g id="smilies_confused_0_Layer2_0_FILL">
<path fill="#FFFFFF" stroke="none" d="
M 7.8 4.35
Q 7.5 3.95 7.2 3.75 6.55 3.25 5.8 3.25 4.7 3.25 3.85 4.35 3 5.45 3 7 3 8.55 3.85 9.65 4.7 10.75 5.8 10.75 6.95 10.75 7.8 9.65 8.65 8.55 8.65 7 8.65 5.45 7.8 4.35
M 15.75 7
Q 15.75 5.45 14.9 4.35 14.6 3.95 14.3 3.75 13.65 3.25 12.9 3.25 11.8 3.25 10.95 4.35 10.1 5.45 10.1 7 10.1 8.55 10.95 9.65 11.8 10.75 12.9 10.75 14.05 10.75 14.9 9.65 15.75 8.55 15.75 7 Z"/>
</g>

<g id="smilies_confused_0_Layer0_0_FILL">
<path fill="#000000" stroke="none" d="
M 7.65 5.9
Q 7.15 5.4 6.4 5.4 5.65 5.4 5.1 5.9 4.6 6.45 4.6 7.2 4.6 7.95 5.1 8.45 5.65 9 6.4 9 7.15 9 7.65 8.45 8.2 7.95 8.2 7.2 8.2 6.45 7.65 5.9
M 13.5 5.9
Q 13 5.4 12.25 5.4 11.5 5.4 10.95 5.9 10.45 6.45 10.45 7.2 10.45 7.95 10.95 8.45 11.5 9 12.25 9 13 9 13.5 8.45 14.05 7.95 14.05 7.2 14.05 6.45 13.5 5.9 Z"/>
</g>

<path id="smilies_confused_0_Layer2_0_1_STROKES" stroke="#333333" stroke-width="1" stroke-linejoin="round" stroke-linecap="round" fill="none" d="
M 15.75 7
Q 15.75 8.55 14.9 9.65 14.05 10.75 12.9 10.75 11.8 10.75 10.95 9.65 10.1 8.55 10.1 7 10.1 5.45 10.95 4.35 11.8 3.25 12.9 3.25 13.65 3.25 14.3 3.75 14.6 3.95 14.9 4.35 15.75 5.45 15.75 7 Z
M 7.2 3.75
Q 7.5 3.95 7.8 4.35 8.65 5.45 8.65 7 8.65 8.55 7.8 9.65 6.95 10.75 5.8 10.75 4.7 10.75 3.85 9.65 3 8.55 3 7 3 5.45 3.85 4.35 4.7 3.25 5.8 3.25 6.55 3.25 7.2 3.75 Z"/>

<path id="smilies_confused_0_Layer1_0_1_STROKES" stroke="#990000" stroke-width="1" stroke-linejoin="round" stroke-linecap="round" fill="none" d="
M 4.65 13.05
Q 4.7 15.15 6.65 15.6 8.55 16 9.15 14.25 9.8 12.55 11.6 12.85 13.4 13.2 13.55 15.35"/>
</defs>

<g transform="matrix( 1, 0, 0, 1, 0,0) ">
<g transform="matrix( 1, 0, 0, 1, 0,0.05) ">
<g transform="matrix( 1, 0, 0, 1, 0,0) ">
<use xlink:href="#smilies_smileback_0_Layer2_0_FILL"/>
</g>

<g transform="matrix( 1, 0, 0, 1, 0,0) ">
<use xlink:href="#smilies_smileback_0_Layer1_0_FILL"/>
</g>
</g>

<g transform="matrix( 1, 0, 0, 1, 0,0) ">
<use xlink:href="#smilies_confused_0_Layer2_0_FILL"/>

<use xlink:href="#smilies_confused_0_Layer2_0_1_STROKES"/>
</g>

<g transform="matrix( 1, 0, 0, 1, 0,0) ">
<use xlink:href="#smilies_confused_0_Layer1_0_1_STROKES"/>
</g>

<g transform="matrix( 1, 0, 0, 1, 0,0) ">
<use xlink:href="#smilies_confused_0_Layer0_0_FILL"/>
</g>
</g>
</svg>
