
<svg xmlns="http://www.w3.org/2000/svg" version="1.1" xmlns:xlink="http://www.w3.org/1999/xlink" preserveAspectRatio="none" x="0px" y="0px" width="40px" height="40px" viewBox="0 0 40 40">
<defs>
<g id="delete_0_Layer1_0_FILL">
<path fill="#FF3D34" stroke="none" d="
M 14.35 -0.05
Q 14.35 -6 10.1 -10.25 5.9 -14.45 -0.05 -14.45 -6 -14.45 -10.25 -10.25 -14.45 -6 -14.45 -0.05 -14.45 5.9 -10.25 10.1 -6 14.35 -0.05 14.35 5.9 14.35 10.1 10.1 14.35 5.9 14.35 -0.05 Z"/>
</g>

<g id="delete_0_Layer0_0_FILL">
<path fill="#FFFFFF" stroke="none" d="
M 6.95 -0.05
Q 6.95 -0.4 6.7 -0.65 6.45 -0.9 6.1 -0.9
L -6.2 -0.9
Q -6.55 -0.9 -6.8 -0.65 -7.05 -0.4 -7.05 -0.05
L -7.05 0
Q -7.05 0.35 -6.8 0.6 -6.55 0.85 -6.2 0.85
L 6.1 0.85
Q 6.45 0.85 6.7 0.6 6.95 0.35 6.95 0
L 6.95 -0.05 Z"/>
</g>
</defs>

<g transform="matrix( 1, 0, 0, 1, 20,20) ">
<g transform="matrix( 1, 0, 0, 1, 0,0) ">
<use xlink:href="#delete_0_Layer1_0_FILL"/>
</g>

<g transform="matrix( 1, 0, 0, 1, 0,0) ">
<use xlink:href="#delete_0_Layer0_0_FILL"/>
</g>
</g>
</svg>
