
<svg xmlns="http://www.w3.org/2000/svg" version="1.1" xmlns:xlink="http://www.w3.org/1999/xlink" preserveAspectRatio="none" x="0px" y="0px" width="19px" height="19px" viewBox="0 0 19 19">
<defs>
<radialGradient id="Gradient_1" gradientUnits="userSpaceOnUse" cx="0" cy="0" r="10.600000000000001" fx="0" fy="0" gradientTransform="matrix( 1, 0, 0, 1, 8.5,8.2) " spreadMethod="pad">
<stop  offset="0%" stop-color="#FEDA18"/>

<stop  offset="69.80392156862744%" stop-color="#FEDA18"/>

<stop  offset="100%" stop-color="#BA9501"/>
</radialGradient>

<linearGradient id="Gradient_2" gradientUnits="userSpaceOnUse" x1="9.35" y1="11.5625" x2="9.35" y2="-2.2625" spreadMethod="pad">
<stop  offset="20.392156862745097%" stop-color="#FFFFFF" stop-opacity="0"/>

<stop  offset="73.72549019607843%" stop-color="#FFFFFF" stop-opacity="0.9490196078431372"/>

<stop  offset="100%" stop-color="#FFFFFF" stop-opacity="0.6509803921568628"/>

<stop  offset="100%" stop-color="#000000" stop-opacity="0.25098039215686274"/>
</linearGradient>

<g id="smilies_smileback_0_Layer2_0_FILL">
<path fill="url(#Gradient_1)" stroke="none" d="
M 16.2 2.75
Q 15.555078125 2.1087890625 14.85 1.6 12.4962890625 -0.03125 9.45 -0.05 9.0818359375 -0.02578125 8.7 0 6.2634765625 0.176171875 4.3 1.5 3.49375 2.03203125 2.75 2.75 2.47109375 3.054296875 2.2 3.35 -0.02109375 5.9759765625 -0.05 9.45 -0.020703125 13.3880859375 2.75 16.15 5.56171875 18.970703125 9.45 18.95 13.4005859375 18.970703125 16.2 16.15 18.9830078125 13.3880859375 18.95 9.45 18.9830078125 5.5494140625 16.2 2.75 Z"/>
</g>

<g id="smilies_smileback_0_Layer1_0_FILL">
<path fill="url(#Gradient_2)" stroke="none" d="
M 16.95 8.55
Q 17.1 7.9 17.1 7.1 17.1 4.45 14.85 2.55 12.55 0.65 9.35 0.65 6.2 0.65 3.85 2.55 1.6 4.45 1.6 7.1 1.6 8 1.85 8.7
L 16.95 8.55 Z"/>
</g>

<g id="smilies_frown_0_Layer2_0_FILL">
<path fill="#FFFFFF" stroke="none" d="
M 7.6 4.25
Q 7.3 3.85 7 3.65 6.35 3.15 5.6 3.15 4.5 3.15 3.65 4.25 2.8 5.35 2.8 6.9 2.8 8.45 3.65 9.55 4.5 10.65 5.6 10.65 6.75 10.65 7.6 9.55 8.45 8.45 8.45 6.9 8.45 5.35 7.6 4.25
M 14.65 4.25
Q 14.35 3.85 14.05 3.65 13.4 3.15 12.65 3.15 11.55 3.15 10.7 4.25 9.85 5.35 9.85 6.9 9.85 8.45 10.7 9.55 11.55 10.65 12.65 10.65 13.8 10.65 14.65 9.55 15.5 8.45 15.5 6.9 15.5 5.35 14.65 4.25 Z"/>
</g>

<g id="smilies_frown_0_Layer0_0_FILL">
<path fill="#000000" stroke="none" d="
M 7.75 5.05
Q 7.75 4.25 7.2 3.7 6.65 3.15 5.85 3.15 5.05 3.15 4.5 3.7 3.95 4.25 3.95 5.05 3.95 5.85 4.5 6.4 5.05 6.95 5.85 6.95 6.65 6.95 7.2 6.4 7.75 5.85 7.75 5.05
M 14.4 5.05
Q 14.4 4.25 13.85 3.7 13.3 3.15 12.5 3.15 11.7 3.15 11.15 3.7 10.6 4.25 10.6 5.05 10.6 5.85 11.15 6.4 11.7 6.95 12.5 6.95 13.3 6.95 13.85 6.4 14.4 5.85 14.4 5.05 Z"/>
</g>

<path id="smilies_frown_0_Layer2_0_1_STROKES" stroke="#333333" stroke-width="1" stroke-linejoin="round" stroke-linecap="round" fill="none" d="
M 14.65 4.25
Q 15.5 5.35 15.5 6.9 15.5 8.45 14.65 9.55 13.8 10.65 12.65 10.65 11.55 10.65 10.7 9.55 9.85 8.45 9.85 6.9 9.85 5.35 10.7 4.25 11.55 3.15 12.65 3.15 13.4 3.15 14.05 3.65 14.35 3.85 14.65 4.25 Z
M 7 3.65
Q 7.3 3.85 7.6 4.25 8.45 5.35 8.45 6.9 8.45 8.45 7.6 9.55 6.75 10.65 5.6 10.65 4.5 10.65 3.65 9.55 2.8 8.45 2.8 6.9 2.8 5.35 3.65 4.25 4.5 3.15 5.6 3.15 6.35 3.15 7 3.65 Z"/>

<path id="smilies_frown_0_Layer1_0_1_STROKES" stroke="#990000" stroke-width="1" stroke-linejoin="round" stroke-linecap="round" fill="none" d="
M 14.75 15
Q 9.8 9.05 3.9 15.1"/>
</defs>

<g transform="matrix( 1, 0, 0, 1, 0,0) ">
<g transform="matrix( 1, 0, 0, 1, 0,0.05) ">
<g transform="matrix( 1, 0, 0, 1, 0,0) ">
<use xlink:href="#smilies_smileback_0_Layer2_0_FILL"/>
</g>

<g transform="matrix( 1, 0, 0, 1, 0,0) ">
<use xlink:href="#smilies_smileback_0_Layer1_0_FILL"/>
</g>
</g>

<g transform="matrix( 1, 0, 0, 1, 0,0) ">
<use xlink:href="#smilies_frown_0_Layer2_0_FILL"/>

<use xlink:href="#smilies_frown_0_Layer2_0_1_STROKES"/>
</g>

<g transform="matrix( 1, 0, 0, 1, 0,0) ">
<use xlink:href="#smilies_frown_0_Layer1_0_1_STROKES"/>
</g>

<g transform="matrix( 1, 0, 0, 1, 0,0) ">
<use xlink:href="#smilies_frown_0_Layer0_0_FILL"/>
</g>
</g>
</svg>
