
<svg xmlns="http://www.w3.org/2000/svg" version="1.1" xmlns:xlink="http://www.w3.org/1999/xlink" preserveAspectRatio="none" x="0px" y="0px" width="19px" height="19px" viewBox="0 0 19 19">
<defs>
<g id="icons_GetX_0_Layer1_0_FILL">
<path fill="#66CCFF" stroke="none" d="
M 18 6.05
Q 18 3 15.25 3
L 2.8 3
Q 0 3 0 6.05
L 0 15.05
Q 0.05 18 2.8 18
L 15.25 18
Q 18 17.95 18 14.95
L 18 6.05
M 13.85 5.3
L 14.45 4.95 14.45 6.25 15.1 6.25 15.1 6.75 14.45 6.75 14.45 8.9
Q 14.45 9.15 14.5 9.25 14.55 9.3 14.6 9.35 14.7 9.4 14.8 9.4 14.95 9.4 15.1 9.4
L 15.2 9.95
Q 14.9 10 14.7 10 14.35 10 14.2 9.9 14 9.8 13.9 9.6 13.85 9.45 13.85 8.85
L 13.85 6.75 13.4 6.75 13.4 6.25 13.85 6.25 13.85 5.3
M 12.95 8.1
Q 12.95 8.15 12.95 8.25
L 10.15 8.25
Q 10.2 8.85 10.5 9.2 10.8 9.5 11.3 9.5 11.65 9.5 11.9 9.35 12.1 9.15 12.25 8.75
L 12.9 8.85
Q 12.75 9.4 12.35 9.7 11.95 10.05 11.3 10.05 10.45 10.05 10 9.55 9.5 9.05 9.5 8.15 9.5 7.2 10 6.7 10.5 6.15 11.25 6.15 12 6.15 12.45 6.65 12.95 7.15 12.95 8.1
M 7.85 6.7
L 7.85 6.25 8.4 6.25 8.4 9.45
Q 8.4 10.3 8.25 10.7 8.05 11.05 7.65 11.25 7.3 11.45 6.75 11.45 6.05 11.45 5.65 11.15 5.25 10.85 5.25 10.25
L 5.85 10.35
Q 5.9 10.65 6.1 10.75 6.3 10.95 6.7 10.95 7.15 10.95 7.4 10.75 7.65 10.6 7.7 10.25 7.75 10.1 7.75 9.45 7.35 9.95 6.75 9.95 5.95 9.95 5.55 9.4 5.15 8.85 5.15 8.1 5.15 7.55 5.3 7.1 5.5 6.65 5.9 6.4 6.25 6.15 6.75 6.15 7.4 6.15 7.85 6.7
M 15.6 15.25
Q 15.6 15.55 15.45 15.85 15.25 16.15 14.9 16.3 14.55 16.45 14.1 16.45 13.4 16.45 13 16.15 12.65 15.85 12.5 15.25
L 13.15 15.15
Q 13.2 15.5 13.45 15.7 13.7 15.9 14.1 15.9 14.55 15.9 14.75 15.75 14.95 15.55 14.95 15.35 14.95 15.1 14.75 15 14.65 14.9 14.15 14.8 13.45 14.6 13.15 14.5 12.9 14.35 12.75 14.15 12.65 13.9 12.65 13.65 12.65 13.4 12.75 13.15 12.85 12.95 13.05 12.8 13.2 12.7 13.45 12.65 13.7 12.55 14 12.55 14.45 12.55 14.75 12.7 15.1 12.8 15.25 13.05 15.4 13.25 15.45 13.6
L 14.85 13.7
Q 14.8 13.4 14.6 13.25 14.4 13.1 14.05 13.1 13.6 13.1 13.4 13.2 13.25 13.35 13.25 13.55 13.25 13.7 13.3 13.75 13.4 13.85 13.55 13.95 13.65 14 14.1 14.1 14.8 14.3 15.05 14.4 15.3 14.5 15.45 14.7 15.6 14.95 15.6 15.25
M 10.5 11.7
L 11.1 11.35 11.1 12.65 11.75 12.65 11.75 13.15 11.1 13.15 11.1 15.3
Q 11.1 15.55 11.15 15.65 11.2 15.7 11.25 15.75 11.35 15.8 11.45 15.8 11.6 15.8 11.75 15.8
L 11.85 16.35
Q 11.55 16.4 11.35 16.4 11 16.4 10.85 16.3 10.65 16.2 10.55 16 10.5 15.85 10.5 15.25
L 10.5 13.15 10.05 13.15 10.05 12.65 10.5 12.65 10.5 11.7
M 9.15 12.95
Q 9.3 13.1 9.35 13.4 9.4 13.55 9.4 13.95
L 9.4 14.8
Q 9.4 15.65 9.4 15.9 9.45 16.15 9.6 16.35
L 8.9 16.35
Q 8.85 16.15 8.8 15.9 8.45 16.2 8.15 16.3 7.8 16.45 7.45 16.45 6.8 16.45 6.5 16.15 6.15 15.85 6.15 15.35 6.15 15.1 6.3 14.9 6.4 14.65 6.6 14.5 6.8 14.4 7.05 14.3 7.25 14.25 7.6 14.2 8.4 14.1 8.75 14
L 8.75 13.85
Q 8.75 13.45 8.55 13.3 8.35 13.1 7.85 13.1 7.4 13.1 7.2 13.25 7 13.4 6.9 13.8
L 6.25 13.7
Q 6.35 13.3 6.55 13.05 6.75 12.8 7.1 12.7 7.45 12.55 7.95 12.55 8.4 12.55 8.7 12.65 9 12.8 9.15 12.95
M 3.95 13.5
L 4.6 12.65 5.35 12.65 4.05 14.4 5.45 16.35 4.65 16.35 3.7 14.9 2.7 16.35 1.95 16.35 3.3 14.4 2.05 12.65 2.85 12.65 3.4 13.5
Q 3.55 13.75 3.65 13.95 3.8 13.7 3.95 13.5
M 8.75 14.7
L 8.75 14.5
Q 8.4 14.65 7.7 14.75 7.35 14.8 7.15 14.85 7 14.9 6.9 15.05 6.85 15.2 6.85 15.35 6.85 15.6 7 15.75 7.2 15.95 7.6 15.95 7.95 15.95 8.25 15.8 8.5 15.6 8.65 15.35 8.75 15.15 8.75 14.7
M 7.5 7
Q 7.2 6.7 6.8 6.7 6.35 6.7 6.05 7 5.8 7.35 5.8 8.05 5.8 8.75 6.05 9.1 6.35 9.45 6.8 9.45 7.25 9.45 7.5 9.1 7.8 8.75 7.8 8.05 7.8 7.35 7.5 7
M 11.25 6.7
Q 10.8 6.7 10.55 6.95 10.25 7.25 10.2 7.75
L 12.25 7.75
Q 12.25 7.25 12.05 7.05 11.75 6.7 11.25 6.7 Z"/>

<path fill="#000000" stroke="none" d="
M 4.6 12.65
L 3.95 13.5
Q 3.8 13.7 3.65 13.95 3.55 13.75 3.4 13.5
L 2.85 12.65 2.05 12.65 3.3 14.4 1.95 16.35 2.7 16.35 3.7 14.9 4.65 16.35 5.45 16.35 4.05 14.4 5.35 12.65 4.6 12.65
M 9.35 13.4
Q 9.3 13.1 9.15 12.95 9 12.8 8.7 12.65 8.4 12.55 7.95 12.55 7.45 12.55 7.1 12.7 6.75 12.8 6.55 13.05 6.35 13.3 6.25 13.7
L 6.9 13.8
Q 7 13.4 7.2 13.25 7.4 13.1 7.85 13.1 8.35 13.1 8.55 13.3 8.75 13.45 8.75 13.85
L 8.75 14
Q 8.4 14.1 7.6 14.2 7.25 14.25 7.05 14.3 6.8 14.4 6.6 14.5 6.4 14.65 6.3 14.9 6.15 15.1 6.15 15.35 6.15 15.85 6.5 16.15 6.8 16.45 7.45 16.45 7.8 16.45 8.15 16.3 8.45 16.2 8.8 15.9 8.85 16.15 8.9 16.35
L 9.6 16.35
Q 9.45 16.15 9.4 15.9 9.4 15.65 9.4 14.8
L 9.4 13.95
Q 9.4 13.55 9.35 13.4
M 8.75 14.5
L 8.75 14.7
Q 8.75 15.15 8.65 15.35 8.5 15.6 8.25 15.8 7.95 15.95 7.6 15.95 7.2 15.95 7 15.75 6.85 15.6 6.85 15.35 6.85 15.2 6.9 15.05 7 14.9 7.15 14.85 7.35 14.8 7.7 14.75 8.4 14.65 8.75 14.5
M 11.1 11.35
L 10.5 11.7 10.5 12.65 10.05 12.65 10.05 13.15 10.5 13.15 10.5 15.25
Q 10.5 15.85 10.55 16 10.65 16.2 10.85 16.3 11 16.4 11.35 16.4 11.55 16.4 11.85 16.35
L 11.75 15.8
Q 11.6 15.8 11.45 15.8 11.35 15.8 11.25 15.75 11.2 15.7 11.15 15.65 11.1 15.55 11.1 15.3
L 11.1 13.15 11.75 13.15 11.75 12.65 11.1 12.65 11.1 11.35
M 15.45 15.85
Q 15.6 15.55 15.6 15.25 15.6 14.95 15.45 14.7 15.3 14.5 15.05 14.4 14.8 14.3 14.1 14.1 13.65 14 13.55 13.95 13.4 13.85 13.3 13.75 13.25 13.7 13.25 13.55 13.25 13.35 13.4 13.2 13.6 13.1 14.05 13.1 14.4 13.1 14.6 13.25 14.8 13.4 14.85 13.7
L 15.45 13.6
Q 15.4 13.25 15.25 13.05 15.1 12.8 14.75 12.7 14.45 12.55 14 12.55 13.7 12.55 13.45 12.65 13.2 12.7 13.05 12.8 12.85 12.95 12.75 13.15 12.65 13.4 12.65 13.65 12.65 13.9 12.75 14.15 12.9 14.35 13.15 14.5 13.45 14.6 14.15 14.8 14.65 14.9 14.75 15 14.95 15.1 14.95 15.35 14.95 15.55 14.75 15.75 14.55 15.9 14.1 15.9 13.7 15.9 13.45 15.7 13.2 15.5 13.15 15.15
L 12.5 15.25
Q 12.65 15.85 13 16.15 13.4 16.45 14.1 16.45 14.55 16.45 14.9 16.3 15.25 16.15 15.45 15.85
M 7.85 6.25
L 7.85 6.7
Q 7.4 6.15 6.75 6.15 6.25 6.15 5.9 6.4 5.5 6.65 5.3 7.1 5.15 7.55 5.15 8.1 5.15 8.85 5.55 9.4 5.95 9.95 6.75 9.95 7.35 9.95 7.75 9.45 7.75 10.1 7.7 10.25 7.65 10.6 7.4 10.75 7.15 10.95 6.7 10.95 6.3 10.95 6.1 10.75 5.9 10.65 5.85 10.35
L 5.25 10.25
Q 5.25 10.85 5.65 11.15 6.05 11.45 6.75 11.45 7.3 11.45 7.65 11.25 8.05 11.05 8.25 10.7 8.4 10.3 8.4 9.45
L 8.4 6.25 7.85 6.25
M 6.8 6.7
Q 7.2 6.7 7.5 7 7.8 7.35 7.8 8.05 7.8 8.75 7.5 9.1 7.25 9.45 6.8 9.45 6.35 9.45 6.05 9.1 5.8 8.75 5.8 8.05 5.8 7.35 6.05 7 6.35 6.7 6.8 6.7
M 12.95 8.25
Q 12.95 8.15 12.95 8.1 12.95 7.15 12.45 6.65 12 6.15 11.25 6.15 10.5 6.15 10 6.7 9.5 7.2 9.5 8.15 9.5 9.05 10 9.55 10.45 10.05 11.3 10.05 11.95 10.05 12.35 9.7 12.75 9.4 12.9 8.85
L 12.25 8.75
Q 12.1 9.15 11.9 9.35 11.65 9.5 11.3 9.5 10.8 9.5 10.5 9.2 10.2 8.85 10.15 8.25
L 12.95 8.25
M 10.55 6.95
Q 10.8 6.7 11.25 6.7 11.75 6.7 12.05 7.05 12.25 7.25 12.25 7.75
L 10.2 7.75
Q 10.25 7.25 10.55 6.95
M 14.45 4.95
L 13.85 5.3 13.85 6.25 13.4 6.25 13.4 6.75 13.85 6.75 13.85 8.85
Q 13.85 9.45 13.9 9.6 14 9.8 14.2 9.9 14.35 10 14.7 10 14.9 10 15.2 9.95
L 15.1 9.4
Q 14.95 9.4 14.8 9.4 14.7 9.4 14.6 9.35 14.55 9.3 14.5 9.25 14.45 9.15 14.45 8.9
L 14.45 6.75 15.1 6.75 15.1 6.25 14.45 6.25 14.45 4.95 Z"/>
</g>

<g id="smilies_star_0_Layer0_0_FILL">
<path fill="#FFCC00" stroke="none" d="
M 6.35 11.8
L 5.4 18.95 10.65 14 17.15 17.1 14.05 10.6 19 5.35 11.85 6.3 8.4 -0.05 7.1 7.05 0 8.35 6.35 11.8 Z"/>
</g>
</defs>

<g transform="matrix( 1.0063018798828125, 0, 0, 1.0044708251953125, 0.9,0.45) ">
<g transform="matrix( 1, 0, 0, 1, 0,0) ">
<use xlink:href="#icons_GetX_0_Layer1_0_FILL"/>
</g>

<g transform="matrix( 0.4736785888671875, 0, 0, 0.4736785888671875, -2.5,-1.65) ">
<g transform="matrix( 1, 0, 0, 1, 0,0) ">
<use xlink:href="#smilies_star_0_Layer0_0_FILL"/>
</g>
</g>
</g>
</svg>
