
<svg xmlns="http://www.w3.org/2000/svg" version="1.1" xmlns:xlink="http://www.w3.org/1999/xlink" preserveAspectRatio="none" x="0px" y="0px" width="19px" height="19px" viewBox="0 0 19 19">
<defs>
<radialGradient id="Gradient_1" gradientUnits="userSpaceOnUse" cx="0" cy="0" r="9.667964172978714" fx="0" fy="0" gradientTransform="matrix( 0.4835557844811113, -0.8753135457051132, 0.5145861022018243, 0.28185871929647666, 8.15,13.8) " spreadMethod="pad">
<stop  offset="0%" stop-color="#000000" stop-opacity="0.4117647058823529"/>

<stop  offset="100%" stop-color="#013198" stop-opacity="0"/>
</radialGradient>

<radialGradient id="Gradient_2" gradientUnits="userSpaceOnUse" cx="0" cy="0" r="5.021096120370531" fx="0" fy="0" gradientTransform="matrix( 0.7767228323269383, -0.6298425531369083, 0.4008088974507598, 0.4929202589767108, 6.9,5.15) " spreadMethod="pad">
<stop  offset="0%" stop-color="#000000" stop-opacity="0.4235294117647059"/>

<stop  offset="100%" stop-color="#013198" stop-opacity="0"/>
</radialGradient>

<g id="Chatter_ChatterB2_0_Layer0_0_FILL">
<path fill="#00C000" stroke="none" d="
M 8.3 3.4
Q 8.2974609375 1.993359375 7.3 1 6.3072265625 0.00390625 4.9 0 3.492578125 0.00390625 2.5 1 1.50234375 1.993359375 1.5 3.4 1.50234375 4.806640625 2.5 5.8 3.492578125 6.78359375 4.9 6.75 3.2388671875 6.9326171875 1.7 9.1 -0.062109375 11.6072265625 0 14.85 0.025 15.912890625 5.15 16 10.26640625 16.0830078125 10.2 15.05 10.011328125 11.7240234375 8.45 9.2 6.997265625 6.7763671875 5.15 6.75 6.40390625 6.6900390625 7.3 5.8 8.2974609375 4.806640625 8.3 3.4 Z"/>
</g>

<g id="Chatter_p1pwn2_0_Layer1_0_FILL">
<path fill="#000000" fill-opacity="0.6509803921568628" stroke="none" d="
M 7.95 1.3
Q 6.9021484375 0.250390625 5.4 0.25 3.89765625 0.250390625 2.8 1.3 1.750390625 2.39765625 1.75 3.9 1.750390625 5.4021484375 2.8 6.45 3.4607421875 7.11171875 4.25 7.35 3.0966796875 7.9419921875 2 9.5 0.202734375 12.0142578125 0.25 15.4
L 0.25 15.4
Q 0.2646484375 16.65078125 5.65 16.75 8.22734375 16.796484375 9.5 16.55 11.0380859375 16.271484375 10.95 15.55
L 10.95 15.5
Q 10.7515625 12.115625 9.2 9.6 8.1099609375 7.80859375 6.8 7.25 7.450390625 7.0017578125 7.95 6.45 9.0494140625 5.4021484375 9.05 3.9 9.0494140625 2.39765625 7.95 1.3
M 5.4 0.75
Q 6.69765625 0.7494140625 7.6 1.65 8.550390625 2.6021484375 8.55 3.9 8.550390625 5.19765625 7.6 6.1 6.7978515625 6.94765625 5.7 7.05
L 5.7 7.3 5.7 7.55
Q 7.3798828125 7.5896484375 8.75 9.85 10.2484375 12.284375 10.45 15.55 10.3826171875 15.8841796875 9.4 16.05 8.1724609375 16.303515625 5.65 16.25 0.8291015625 16.16171875 0.75 15.4 0.6974609375 12.185546875 2.4 9.8 3.86015625 7.7294921875 5.4 7.55
L 5.4 7.3 5.35 7.05
Q 4.0931640625 7.04140625 3.15 6.1 2.2494140625 5.19765625 2.25 3.9 2.2494140625 2.6021484375 3.15 1.65 4.1021484375 0.7494140625 5.4 0.75
M 5.55 7.1
L 5.55 7.1 5.5 7.1
Q 5.4521484375 7.2 5.45 7.3 5.4533203125 7.4029296875 5.5 7.45 5.54296875 7.492578125 5.55 7.5
L 5.6 7.45
Q 5.66015625 7.3998046875 5.65 7.3 5.6466796875 7.197265625 5.55 7.1 Z"/>

<path fill="url(#Gradient_1)" stroke="none" d="
M 5.45 7.3
L 5.4 7.3 5.4 7.55
Q 3.86015625 7.7294921875 2.4 9.8 0.6974609375 12.185546875 0.75 15.4 0.8291015625 16.16171875 5.65 16.25 8.1724609375 16.303515625 9.4 16.05 10.3826171875 15.8841796875 10.45 15.55 10.2484375 12.284375 8.75 9.85 7.3798828125 7.5896484375 5.7 7.55
L 5.7 7.3 5.65 7.3
Q 5.66015625 7.3998046875 5.6 7.45
L 5.55 7.5
Q 5.54296875 7.492578125 5.5 7.45 5.4533203125 7.4029296875 5.45 7.3
M 2.7 14.9
Q 3 10.65 5.4 9.1 3 10.65 2.7 14.9 Z"/>

<path fill="url(#Gradient_2)" stroke="none" d="
M 7.6 1.65
Q 6.69765625 0.7494140625 5.4 0.75 4.1021484375 0.7494140625 3.15 1.65 2.2494140625 2.6021484375 2.25 3.9 2.2494140625 5.19765625 3.15 6.1 4.0931640625 7.04140625 5.35 7.05
L 5.4 7.3 5.45 7.3
Q 5.4521484375 7.2 5.5 7.1
L 5.55 7.1 5.55 7.1
Q 5.6466796875 7.197265625 5.65 7.3
L 5.7 7.3 5.7 7.05
Q 6.7978515625 6.94765625 7.6 6.1 8.550390625 5.19765625 8.55 3.9 8.550390625 2.6021484375 7.6 1.65
M 3.7 3.95
Q 3.9 2.65 5 2.1 3.9 2.65 3.7 3.95 Z"/>
</g>

<g id="Chatter_ChatterB4_0_Layer0_0_FILL">
<path fill="#FF0000" stroke="none" d="
M 8.3 3.4
Q 8.2974609375 1.993359375 7.3 1 6.3072265625 0.00390625 4.9 0 3.492578125 0.00390625 2.5 1 1.50234375 1.993359375 1.5 3.4 1.50234375 4.806640625 2.5 5.8 3.492578125 6.78359375 4.9 6.75 3.2388671875 6.9326171875 1.7 9.1 -0.062109375 11.6072265625 0 14.85 0.025 15.912890625 5.15 16 10.26640625 16.0830078125 10.2 15.05 10.011328125 11.7240234375 8.45 9.2 6.997265625 6.7763671875 5.15 6.75 6.40390625 6.6900390625 7.3 5.8 8.2974609375 4.806640625 8.3 3.4 Z"/>
</g>

<g id="Chatter_p1pwn4_0_Layer1_0_FILL">
<path fill="#000000" fill-opacity="0.6509803921568628" stroke="none" d="
M 7.95 1.3
Q 6.9021484375 0.250390625 5.4 0.25 3.89765625 0.250390625 2.8 1.3 1.750390625 2.39765625 1.75 3.9 1.750390625 5.4021484375 2.8 6.45 3.4607421875 7.11171875 4.25 7.35 3.0966796875 7.9419921875 2 9.5 0.202734375 12.0142578125 0.25 15.4
L 0.25 15.4
Q 0.2646484375 16.65078125 5.65 16.75 8.22734375 16.796484375 9.5 16.55 11.0380859375 16.271484375 10.95 15.55
L 10.95 15.5
Q 10.7515625 12.115625 9.2 9.6 8.1099609375 7.80859375 6.8 7.25 7.450390625 7.0017578125 7.95 6.45 9.0494140625 5.4021484375 9.05 3.9 9.0494140625 2.39765625 7.95 1.3
M 8.55 3.9
Q 8.550390625 5.19765625 7.6 6.1 6.7978515625 6.94765625 5.7 7.05
L 5.7 7.3 5.7 7.55
Q 7.3798828125 7.5896484375 8.75 9.85 10.2484375 12.284375 10.45 15.55 10.3826171875 15.8841796875 9.4 16.05 8.1724609375 16.303515625 5.65 16.25 0.8291015625 16.16171875 0.75 15.4 0.6974609375 12.185546875 2.4 9.8 3.86015625 7.7294921875 5.4 7.55
L 5.4 7.3 5.35 7.05
Q 4.0931640625 7.04140625 3.15 6.1 2.2494140625 5.19765625 2.25 3.9 2.2494140625 2.6021484375 3.15 1.65 4.1021484375 0.7494140625 5.4 0.75 6.69765625 0.7494140625 7.6 1.65 8.550390625 2.6021484375 8.55 3.9
M 5.55 7.1
L 5.55 7.1 5.5 7.1
Q 5.4521484375 7.2 5.45 7.3 5.4533203125 7.4029296875 5.5 7.45 5.54296875 7.492578125 5.55 7.5
L 5.6 7.45
Q 5.66015625 7.3998046875 5.65 7.3 5.6466796875 7.197265625 5.55 7.1 Z"/>

<path fill="url(#Gradient_1)" stroke="none" d="
M 5.45 7.3
L 5.4 7.3 5.4 7.55
Q 3.86015625 7.7294921875 2.4 9.8 0.6974609375 12.185546875 0.75 15.4 0.8291015625 16.16171875 5.65 16.25 8.1724609375 16.303515625 9.4 16.05 10.3826171875 15.8841796875 10.45 15.55 10.2484375 12.284375 8.75 9.85 7.3798828125 7.5896484375 5.7 7.55
L 5.7 7.3 5.65 7.3
Q 5.66015625 7.3998046875 5.6 7.45
L 5.55 7.5
Q 5.54296875 7.492578125 5.5 7.45 5.4533203125 7.4029296875 5.45 7.3
M 2.7 14.9
Q 3 10.65 5.4 9.1 3 10.65 2.7 14.9 Z"/>

<path fill="url(#Gradient_2)" stroke="none" d="
M 7.6 6.1
Q 8.550390625 5.19765625 8.55 3.9 8.550390625 2.6021484375 7.6 1.65 6.69765625 0.7494140625 5.4 0.75 4.1021484375 0.7494140625 3.15 1.65 2.2494140625 2.6021484375 2.25 3.9 2.2494140625 5.19765625 3.15 6.1 4.0931640625 7.04140625 5.35 7.05
L 5.4 7.3 5.45 7.3
Q 5.4521484375 7.2 5.5 7.1
L 5.55 7.1 5.55 7.1
Q 5.6466796875 7.197265625 5.65 7.3
L 5.7 7.3 5.7 7.05
Q 6.7978515625 6.94765625 7.6 6.1
M 3.7 3.95
Q 3.9 2.65 5 2.1 3.9 2.65 3.7 3.95 Z"/>
</g>

<g id="Chatter_ChatterB3_0_Layer0_0_FILL">
<path fill="#5555FF" stroke="none" d="
M 8.3 3.4
Q 8.2974609375 1.993359375 7.3 1 6.3072265625 0.00390625 4.9 0 3.492578125 0.00390625 2.5 1 1.50234375 1.993359375 1.5 3.4 1.50234375 4.806640625 2.5 5.8 3.492578125 6.78359375 4.9 6.75 3.2388671875 6.9326171875 1.7 9.1 -0.062109375 11.6072265625 0 14.85 0.025 15.912890625 5.15 16 10.26640625 16.0830078125 10.2 15.05 10.011328125 11.7240234375 8.45 9.2 6.997265625 6.7763671875 5.15 6.75 6.40390625 6.6900390625 7.3 5.8 8.2974609375 4.806640625 8.3 3.4 Z"/>
</g>

<g id="Chatter_p1pwn3_0_Layer1_0_FILL">
<path fill="#000000" fill-opacity="0.6509803921568628" stroke="none" d="
M 7.95 1.3
Q 6.9021484375 0.250390625 5.4 0.25 3.89765625 0.250390625 2.8 1.3 1.750390625 2.39765625 1.75 3.9 1.750390625 5.4021484375 2.8 6.45 3.4607421875 7.11171875 4.25 7.35 3.0966796875 7.9419921875 2 9.5 0.202734375 12.0142578125 0.25 15.4
L 0.25 15.4
Q 0.2646484375 16.65078125 5.65 16.75 8.22734375 16.796484375 9.5 16.55 11.0380859375 16.271484375 10.95 15.55
L 10.95 15.5
Q 10.7515625 12.115625 9.2 9.6 8.1099609375 7.80859375 6.8 7.25 7.450390625 7.0017578125 7.95 6.45 9.0494140625 5.4021484375 9.05 3.9 9.0494140625 2.39765625 7.95 1.3
M 5.4 0.75
Q 6.69765625 0.7494140625 7.6 1.65 8.550390625 2.6021484375 8.55 3.9 8.550390625 5.19765625 7.6 6.1 6.7978515625 6.94765625 5.7 7.05
L 5.7 7.3 5.7 7.55
Q 7.3798828125 7.5896484375 8.75 9.85 10.2484375 12.284375 10.45 15.55 10.3826171875 15.8841796875 9.4 16.05 8.1724609375 16.303515625 5.65 16.25 0.8291015625 16.16171875 0.75 15.4 0.6974609375 12.185546875 2.4 9.8 3.86015625 7.7294921875 5.4 7.55
L 5.4 7.3 5.35 7.05
Q 4.0931640625 7.04140625 3.15 6.1 2.2494140625 5.19765625 2.25 3.9 2.2494140625 2.6021484375 3.15 1.65 4.1021484375 0.7494140625 5.4 0.75
M 5.55 7.1
L 5.55 7.1 5.5 7.1
Q 5.4521484375 7.2 5.45 7.3 5.4533203125 7.4029296875 5.5 7.45 5.54296875 7.492578125 5.55 7.5
L 5.6 7.45
Q 5.66015625 7.3998046875 5.65 7.3 5.6466796875 7.197265625 5.55 7.1 Z"/>

<path fill="url(#Gradient_1)" stroke="none" d="
M 5.45 7.3
L 5.4 7.3 5.4 7.55
Q 3.86015625 7.7294921875 2.4 9.8 0.6974609375 12.185546875 0.75 15.4 0.8291015625 16.16171875 5.65 16.25 8.1724609375 16.303515625 9.4 16.05 10.3826171875 15.8841796875 10.45 15.55 10.2484375 12.284375 8.75 9.85 7.3798828125 7.5896484375 5.7 7.55
L 5.7 7.3 5.65 7.3
Q 5.66015625 7.3998046875 5.6 7.45
L 5.55 7.5
Q 5.54296875 7.492578125 5.5 7.45 5.4533203125 7.4029296875 5.45 7.3
M 2.7 14.9
Q 3 10.65 5.4 9.1 3 10.65 2.7 14.9 Z"/>

<path fill="url(#Gradient_2)" stroke="none" d="
M 7.6 1.65
Q 6.69765625 0.7494140625 5.4 0.75 4.1021484375 0.7494140625 3.15 1.65 2.2494140625 2.6021484375 2.25 3.9 2.2494140625 5.19765625 3.15 6.1 4.0931640625 7.04140625 5.35 7.05
L 5.4 7.3 5.45 7.3
Q 5.4521484375 7.2 5.5 7.1
L 5.55 7.1 5.55 7.1
Q 5.6466796875 7.197265625 5.65 7.3
L 5.7 7.3 5.7 7.05
Q 6.7978515625 6.94765625 7.6 6.1 8.550390625 5.19765625 8.55 3.9 8.550390625 2.6021484375 7.6 1.65
M 3.7 3.95
Q 3.9 2.65 5 2.1 3.9 2.65 3.7 3.95 Z"/>
</g>

<g id="Chatter_ChatterB_0_Layer0_0_FILL">
<path fill="#FF9900" stroke="none" d="
M 8.3 3.4
Q 8.2974609375 1.993359375 7.3 1 6.3072265625 0.00390625 4.9 0 3.492578125 0.00390625 2.5 1 1.50234375 1.993359375 1.5 3.4 1.50234375 4.806640625 2.5 5.8 3.492578125 6.78359375 4.9 6.75 3.2388671875 6.9326171875 1.7 9.1 -0.062109375 11.6072265625 0 14.85 0.025 15.912890625 5.15 16 10.26640625 16.0830078125 10.2 15.05 10.011328125 11.7240234375 8.45 9.2 6.997265625 6.7763671875 5.15 6.75 6.40390625 6.6900390625 7.3 5.8 8.2974609375 4.806640625 8.3 3.4 Z"/>
</g>

<g id="Chatter_p1pwn_0_Layer1_0_FILL">
<path fill="#000000" fill-opacity="0.6509803921568628" stroke="none" d="
M 7.95 1.3
Q 6.9021484375 0.250390625 5.4 0.25 3.89765625 0.250390625 2.8 1.3 1.750390625 2.39765625 1.75 3.9 1.750390625 5.4021484375 2.8 6.45 3.4607421875 7.11171875 4.25 7.35 3.0966796875 7.9419921875 2 9.5 0.202734375 12.0142578125 0.25 15.4
L 0.25 15.4
Q 0.2646484375 16.65078125 5.65 16.75 8.22734375 16.796484375 9.5 16.55 11.0380859375 16.271484375 10.95 15.55
L 10.95 15.5
Q 10.7515625 12.115625 9.2 9.6 8.1099609375 7.80859375 6.8 7.25 7.450390625 7.0017578125 7.95 6.45 9.0494140625 5.4021484375 9.05 3.9 9.0494140625 2.39765625 7.95 1.3
M 5.4 0.75
Q 6.69765625 0.7494140625 7.6 1.65 8.550390625 2.6021484375 8.55 3.9 8.550390625 5.19765625 7.6 6.1 6.7978515625 6.94765625 5.7 7.05
L 5.7 7.3 5.7 7.55
Q 7.3798828125 7.5896484375 8.75 9.85 10.2484375 12.284375 10.45 15.55 10.3826171875 15.8841796875 9.4 16.05 8.1724609375 16.303515625 5.65 16.25 0.8291015625 16.16171875 0.75 15.4 0.6974609375 12.185546875 2.4 9.8 3.86015625 7.7294921875 5.4 7.55
L 5.4 7.3 5.35 7.05
Q 4.0931640625 7.04140625 3.15 6.1 2.2494140625 5.19765625 2.25 3.9 2.2494140625 2.6021484375 3.15 1.65 4.1021484375 0.7494140625 5.4 0.75
M 5.55 7.1
L 5.55 7.1 5.5 7.1
Q 5.4521484375 7.2 5.45 7.3 5.4533203125 7.4029296875 5.5 7.45 5.54296875 7.492578125 5.55 7.5
L 5.6 7.45
Q 5.66015625 7.3998046875 5.65 7.3 5.6466796875 7.197265625 5.55 7.1 Z"/>

<path fill="url(#Gradient_1)" stroke="none" d="
M 5.45 7.3
L 5.4 7.3 5.4 7.55
Q 3.86015625 7.7294921875 2.4 9.8 0.6974609375 12.185546875 0.75 15.4 0.8291015625 16.16171875 5.65 16.25 8.1724609375 16.303515625 9.4 16.05 10.3826171875 15.8841796875 10.45 15.55 10.2484375 12.284375 8.75 9.85 7.3798828125 7.5896484375 5.7 7.55
L 5.7 7.3 5.65 7.3
Q 5.66015625 7.3998046875 5.6 7.45
L 5.55 7.5
Q 5.54296875 7.492578125 5.5 7.45 5.4533203125 7.4029296875 5.45 7.3
M 2.7 14.9
Q 3 10.65 5.4 9.1 3 10.65 2.7 14.9 Z"/>

<path fill="url(#Gradient_2)" stroke="none" d="
M 7.6 1.65
Q 6.69765625 0.7494140625 5.4 0.75 4.1021484375 0.7494140625 3.15 1.65 2.2494140625 2.6021484375 2.25 3.9 2.2494140625 5.19765625 3.15 6.1 4.0931640625 7.04140625 5.35 7.05
L 5.4 7.3 5.45 7.3
Q 5.4521484375 7.2 5.5 7.1
L 5.55 7.1 5.55 7.1
Q 5.6466796875 7.197265625 5.65 7.3
L 5.7 7.3 5.7 7.05
Q 6.7978515625 6.94765625 7.6 6.1 8.550390625 5.19765625 8.55 3.9 8.550390625 2.6021484375 7.6 1.65
M 3.7 3.95
Q 3.9 2.65 5 2.1 3.9 2.65 3.7 3.95 Z"/>
</g>

<path id="Chatter_p1pwn2_0_Layer1_0_1_STROKES" stroke="#FFFFFF" stroke-width="1" stroke-linejoin="round" stroke-linecap="round" fill="none" d="
M 3.7 3.95
Q 3.9 2.65 5 2.1
M 2.7 14.9
Q 3 10.65 5.4 9.1"/>

<path id="Chatter_p1pwn2_0_Layer1_0_2_STROKES" stroke="#000000" stroke-width="1" stroke-linejoin="round" stroke-linecap="round" fill="none" d="
M 5.45 7.3
L 5.4 7.3"/>

<path id="Chatter_p1pwn4_0_Layer1_0_1_STROKES" stroke="#FFFFFF" stroke-width="1" stroke-linejoin="round" stroke-linecap="round" fill="none" d="
M 3.7 3.95
Q 3.9 2.65 5 2.1
M 2.7 14.9
Q 3 10.65 5.4 9.1"/>

<path id="Chatter_p1pwn4_0_Layer1_0_2_STROKES" stroke="#000000" stroke-width="1" stroke-linejoin="round" stroke-linecap="round" fill="none" d="
M 5.45 7.3
L 5.4 7.3"/>

<path id="Chatter_p1pwn3_0_Layer1_0_1_STROKES" stroke="#FFFFFF" stroke-width="1" stroke-linejoin="round" stroke-linecap="round" fill="none" d="
M 3.7 3.95
Q 3.9 2.65 5 2.1
M 2.7 14.9
Q 3 10.65 5.4 9.1"/>

<path id="Chatter_p1pwn3_0_Layer1_0_2_STROKES" stroke="#000000" stroke-width="1" stroke-linejoin="round" stroke-linecap="round" fill="none" d="
M 5.45 7.3
L 5.4 7.3"/>

<path id="Chatter_p1pwn_0_Layer1_0_1_STROKES" stroke="#FFFFFF" stroke-width="1" stroke-linejoin="round" stroke-linecap="round" fill="none" d="
M 3.7 3.95
Q 3.9 2.65 5 2.1
M 2.7 14.9
Q 3 10.65 5.4 9.1"/>

<path id="Chatter_p1pwn_0_Layer1_0_2_STROKES" stroke="#000000" stroke-width="1" stroke-linejoin="round" stroke-linecap="round" fill="none" d="
M 5.45 7.3
L 5.4 7.3"/>
</defs>

<g transform="matrix( 0.8176116943359375, 0, 0, 0.817474365234375, 4.85,2.2) ">
<g id="col0" transform="matrix( 1, 0, 0, 1, 0.5,0.5) ">
<g transform="matrix( 1, 0, 0, 1, 0,0) ">
<use xlink:href="#Chatter_ChatterB2_0_Layer0_0_FILL"/>
</g>
</g>

<g transform="matrix( 1, 0, 0, 1, 0,0) ">
<use xlink:href="#Chatter_p1pwn2_0_Layer1_0_FILL"/>

<use xlink:href="#Chatter_p1pwn2_0_Layer1_0_1_STROKES"/>

<use xlink:href="#Chatter_p1pwn2_0_Layer1_0_2_STROKES"/>
</g>
</g>

<g transform="matrix( 0.8176116943359375, 0, 0, 0.817474365234375, 8.15,3.35) ">
<g id="col0_FL" transform="matrix( 1, 0, 0, 1, 0.5,0.5) ">
<g transform="matrix( 1, 0, 0, 1, 0,0) ">
<use xlink:href="#Chatter_ChatterB4_0_Layer0_0_FILL"/>
</g>
</g>

<g transform="matrix( 1, 0, 0, 1, 0,0) ">
<use xlink:href="#Chatter_p1pwn4_0_Layer1_0_FILL"/>

<use xlink:href="#Chatter_p1pwn4_0_Layer1_0_1_STROKES"/>

<use xlink:href="#Chatter_p1pwn4_0_Layer1_0_2_STROKES"/>
</g>
</g>

<g transform="matrix( 0.8176116943359375, 0, 0, 0.817474365234375, 1.6,3.35) ">
<g id="col0_FL_FL" transform="matrix( 1, 0, 0, 1, 0.5,0.5) ">
<g transform="matrix( 1, 0, 0, 1, 0,0) ">
<use xlink:href="#Chatter_ChatterB3_0_Layer0_0_FILL"/>
</g>
</g>

<g transform="matrix( 1, 0, 0, 1, 0,0) ">
<use xlink:href="#Chatter_p1pwn3_0_Layer1_0_FILL"/>

<use xlink:href="#Chatter_p1pwn3_0_Layer1_0_1_STROKES"/>

<use xlink:href="#Chatter_p1pwn3_0_Layer1_0_2_STROKES"/>
</g>
</g>

<g transform="matrix( 0.8176116943359375, 0, 0, 0.817474365234375, 4.85,3.75) ">
<g id="col0_FL_FL_FL" transform="matrix( 1, 0, 0, 1, 0.5,0.5) ">
<g transform="matrix( 1, 0, 0, 1, 0,0) ">
<use xlink:href="#Chatter_ChatterB_0_Layer0_0_FILL"/>
</g>
</g>

<g transform="matrix( 1, 0, 0, 1, 0,0) ">
<use xlink:href="#Chatter_p1pwn_0_Layer1_0_FILL"/>

<use xlink:href="#Chatter_p1pwn_0_Layer1_0_1_STROKES"/>

<use xlink:href="#Chatter_p1pwn_0_Layer1_0_2_STROKES"/>
</g>
</g>
</svg>
