
<svg xmlns="http://www.w3.org/2000/svg" version="1.1" xmlns:xlink="http://www.w3.org/1999/xlink" preserveAspectRatio="none" x="0px" y="0px" width="19px" height="19px" viewBox="0 0 19 19">
<defs>
<radialGradient id="Gradient_1" gradientUnits="userSpaceOnUse" cx="0" cy="0" r="10.062500000000002" fx="0" fy="0" gradientTransform="matrix( 0.9999999999999999, 0, 0, 0.9999999999999999, 8.1,8.65) " spreadMethod="pad">
<stop  offset="77.6470588235294%" stop-color="#000000" stop-opacity="0"/>

<stop  offset="100%" stop-color="#000000" stop-opacity="0.8"/>
</radialGradient>

<radialGradient id="Gradient_2" gradientUnits="userSpaceOnUse" cx="0" cy="0" r="14.225000000000003" fx="0" fy="0" gradientTransform="matrix( 0.9999999999999998, 0, 0, 0.9999999999999998, 7.1,4.7) " spreadMethod="pad">
<stop  offset="0%" stop-color="#FFFFFF" stop-opacity="0.611764705882353"/>

<stop  offset="41.1764705882353%" stop-color="#FFFFFF" stop-opacity="0"/>

<stop  offset="42.745098039215684%" stop-color="#FFFFFF" stop-opacity="0"/>
</radialGradient>

<g id="icons_HelpIcon_0_Layer2_0_FILL">
<path fill="#2A3FAA" fill-opacity="0" stroke="none" d="
M 17.95 9
Q 17.9806640625 5.26640625 15.35 2.6 12.7095703125 -0.0048828125 8.95 0 5.25390625 -0.0048828125 2.6 2.6 -0.0044921875 5.26640625 0 9 -0.0044921875 12.734375 2.6 15.35 5.25390625 18.005859375 8.95 18 12.7095703125 18.005859375 15.35 15.35 17.9806640625 12.734375 17.95 9
M 14 3.95
Q 16.133984375 6.0615234375 16.1 9.05 16.133984375 12.0392578125 14 14.15 11.9015625 16.271875 8.9 16.25 5.91171875 16.271875 3.8 14.15 1.69140625 12.0392578125 1.7 9.05 1.69140625 6.0615234375 3.8 3.95 5.91171875 1.81640625 8.9 1.8 11.9015625 1.81640625 14 3.95 Z"/>
</g>

<g id="icons_infob_0_Layer0_0_FILL">
<path fill="#2A3FAA" stroke="none" d="
M 7.2 14.45
Q 10.2015625 14.471875 12.3 12.35 14.433984375 10.2392578125 14.4 7.25 14.433984375 4.2615234375 12.3 2.15 10.2015625 0.01640625 7.2 0 4.21171875 0.01640625 2.1 2.15 -0.00859375 4.2615234375 0 7.25 -0.00859375 10.2392578125 2.1 12.35 4.21171875 14.471875 7.2 14.45 Z"/>
</g>

<g id="icons_ques_0_Layer0_0_FILL">
<path fill="#FFFFFF" stroke="none" d="
M 8.75 5.5
Q 9.1318359375 4.756640625 9.1 3.95 9.129296875 2.0134765625 7.6 0.85 6.5138671875 -0.0046875 4.7 0 2.3880859375 -0.0068359375 1.25 1.2 0.14453125 2.4521484375 -0.05 4.45
L 3.2 4.9
Q 3.3109375 3.8201171875 3.7 3.35 4.0716796875 2.928515625 4.65 2.9 5.1994140625 2.93046875 5.45 3.2 5.7435546875 3.507421875 5.75 4 5.7478515625 4.5501953125 5.05 5.15 3.81171875 6.3615234375 3.45 6.8 3.0837890625 7.295703125 2.9 7.85 2.72109375 8.4384765625 2.7 9.35
L 2.7 9.7 5.85 9.7
Q 5.876171875 8.9826171875 6.1 8.5 6.31328125 8.0572265625 7.15 7.3 8.3568359375 6.2349609375 8.75 5.5 Z"/>
</g>

<g id="icons_ques_0_Layer0_1_FILL">
<path fill="#FFFFFF" stroke="none" d="
M 2.75 12
Q 2.7533203125 12.6857421875 3.2 13.15 3.690234375 13.6224609375 4.35 13.6 5.010546875 13.6224609375 5.45 13.15 5.9474609375 12.6857421875 5.95 12 5.9474609375 11.352734375 5.45 10.85 5.010546875 10.416015625 4.35 10.4 3.690234375 10.416015625 3.2 10.85 2.7533203125 11.352734375 2.75 12 Z"/>
</g>

<g id="icons_HelpIcon_0_Layer1_0_FILL">
<path fill="url(#Gradient_1)" stroke="none" d="
M 15.35 2.6
Q 12.7095703125 -0.0048828125 8.95 0 5.25390625 -0.0048828125 2.6 2.6 -0.0044921875 5.26640625 0 9 -0.0044921875 12.734375 2.6 15.35 5.25390625 18.005859375 8.95 18 12.7095703125 18.005859375 15.35 15.35 17.9806640625 12.734375 17.95 9 17.9806640625 5.26640625 15.35 2.6 Z"/>
</g>

<g id="icons_HelpIcon_0_Layer0_0_FILL">
<path fill="url(#Gradient_2)" stroke="none" d="
M 17.5 11.9
Q 17.9767578125 10.5443359375 17.95 9 17.9806640625 5.26640625 15.35 2.6 12.7095703125 -0.0048828125 8.95 0 5.25390625 -0.0048828125 2.6 2.6 -0.0044921875 5.26640625 0 9 -0.0044921875 12.734375 2.6 15.35 3.82421875 16.560546875 5.25 17.2 6.4361328125 17.4494140625 7.7 17.45 12.4412109375 17.455859375 15.75 14.1 16.812890625 13.080078125 17.5 11.9 Z"/>
</g>
</defs>

<g transform="matrix( 0.856964111328125, 0, 0, 0.856964111328125, 1.9,1.9) ">
<g transform="matrix( 1, 0, 0, 1, 0,0) ">
<use xlink:href="#icons_HelpIcon_0_Layer2_0_FILL"/>
</g>

<g id="infob" transform="matrix( 1.2422027587890625, 0, 0, 1.2413482666015625, 0,0) ">
<g transform="matrix( 1, 0, 0, 1, 0,0) ">
<use xlink:href="#icons_infob_0_Layer0_0_FILL"/>
</g>
</g>

<g id="ques" transform="matrix( 0.899993896484375, 0, 0, 0.899993896484375, 4.85,3) ">
<g transform="matrix( 1, 0, 0, 1, 0,0) ">
<use xlink:href="#icons_ques_0_Layer0_0_FILL"/>
</g>

<g transform="matrix( 1, 0, 0, 1, 0,0) ">
<use xlink:href="#icons_ques_0_Layer0_1_FILL"/>
</g>
</g>

<g transform="matrix( 1, 0, 0, 1, 0,0) ">
<use xlink:href="#icons_HelpIcon_0_Layer1_0_FILL"/>
</g>

<g transform="matrix( 1, 0, 0, 1, 0,0) ">
<use xlink:href="#icons_HelpIcon_0_Layer0_0_FILL"/>
</g>
</g>
</svg>
