
<svg xmlns="http://www.w3.org/2000/svg" version="1.1" xmlns:xlink="http://www.w3.org/1999/xlink" preserveAspectRatio="none" x="0px" y="0px" width="19px" height="19px" viewBox="0 0 19 19">
<defs>
<radialGradient id="Gradient_1" gradientUnits="userSpaceOnUse" cx="0" cy="0" r="10.600000000000001" fx="0" fy="0" gradientTransform="matrix( 1, 0, 0, 1, 8.5,8.2) " spreadMethod="pad">
<stop  offset="0%" stop-color="#FEDA18"/>

<stop  offset="69.80392156862744%" stop-color="#FEDA18"/>

<stop  offset="100%" stop-color="#BA9501"/>
</radialGradient>

<linearGradient id="Gradient_2" gradientUnits="userSpaceOnUse" x1="9.35" y1="11.5625" x2="9.35" y2="-2.2625" spreadMethod="pad">
<stop  offset="20.392156862745097%" stop-color="#FFFFFF" stop-opacity="0"/>

<stop  offset="73.72549019607843%" stop-color="#FFFFFF" stop-opacity="0.9490196078431372"/>

<stop  offset="100%" stop-color="#FFFFFF" stop-opacity="0.6509803921568628"/>

<stop  offset="100%" stop-color="#000000" stop-opacity="0.25098039215686274"/>
</linearGradient>

<g id="smilies_smileback_0_Layer2_0_FILL">
<path fill="url(#Gradient_1)" stroke="none" d="
M 16.2 2.75
Q 15.555078125 2.1087890625 14.85 1.6 12.4962890625 -0.03125 9.45 -0.05 9.0818359375 -0.02578125 8.7 0 6.2634765625 0.176171875 4.3 1.5 3.49375 2.03203125 2.75 2.75 2.47109375 3.054296875 2.2 3.35 -0.02109375 5.9759765625 -0.05 9.45 -0.020703125 13.3880859375 2.75 16.15 5.56171875 18.970703125 9.45 18.95 13.4005859375 18.970703125 16.2 16.15 18.9830078125 13.3880859375 18.95 9.45 18.9830078125 5.5494140625 16.2 2.75 Z"/>
</g>

<g id="smilies_smileback_0_Layer1_0_FILL">
<path fill="url(#Gradient_2)" stroke="none" d="
M 16.95 8.55
Q 17.1 7.9 17.1 7.1 17.1 4.45 14.85 2.55 12.55 0.65 9.35 0.65 6.2 0.65 3.85 2.55 1.6 4.45 1.6 7.1 1.6 8 1.85 8.7
L 16.95 8.55 Z"/>
</g>

<g id="smilies_star_0_Layer0_0_FILL">
<path fill="#FFCC00" stroke="none" d="
M 6.35 11.8
L 5.4 18.95 10.65 14 17.15 17.1 14.05 10.6 19 5.35 11.85 6.3 8.4 -0.05 7.1 7.05 0 8.35 6.35 11.8 Z"/>
</g>

<g id="smilies_vampire_0_Layer2_0_FILL">
<path fill="#FF0000" stroke="none" d="
M 15.1 10.05
L 12.3 10.05 12.3 12.7 8.25 12.7 8.25 12.45 3.4 12.45 3.4 15.5 15.1 15.5 15.1 10.05
M 12 8.5
L 12 6.1 2.9 6.1 2.9 12.45 3.4 12.45 8.25 12.45 8.25 8.5 12 8.5
M 12.3 10.05
L 12.3 8.5 12 8.5 8.25 8.5 8.25 12.45 8.25 12.7 12.3 12.7 12.3 10.05 Z"/>
</g>

<g id="smilies_biggrin_0_Layer1_0_FILL">
<path fill="#FFFFFF" stroke="none" d="
M 4.7 15.45
Q 6.65 17.7 9.4 17.65 12.4 17.6 14.2 15.5 15.85 13.55 15.65 11 8.95 12.25 2.9 11.1 2.9 13.4 4.7 15.45
M 7.45 2.55
Q 6.6 1.45 5.45 1.45 4.35 1.45 3.5 2.55 2.65 3.65 2.65 5.2 2.65 6.75 3.5 7.85 4.35 8.95 5.45 8.95 6.6 8.95 7.45 7.85 8.3 6.75 8.3 5.2 8.3 3.65 7.45 2.55
M 12.8 1.45
Q 11.7 1.45 10.85 2.55 10 3.65 10 5.2 10 6.75 10.85 7.85 11.7 8.95 12.8 8.95 13.95 8.95 14.8 7.85 15.65 6.75 15.65 5.2 15.65 3.65 14.8 2.55 13.95 1.45 12.8 1.45 Z"/>
</g>

<g id="smilies_biggrin_0_Layer0_0_FILL">
<path fill="#000000" stroke="none" d="
M 7.45 4.2
Q 6.9 3.65 6.05 3.65 5.2 3.65 4.6 4.2 4.05 4.8 4.05 5.65 4.05 6.5 4.6 7.05 5.2 7.65 6.05 7.65 6.9 7.65 7.45 7.05 8.05 6.5 8.05 5.65 8.05 4.8 7.45 4.2
M 14.4 5.65
Q 14.4 4.8 13.8 4.2 13.25 3.65 12.4 3.65 11.55 3.65 10.95 4.2 10.4 4.8 10.4 5.65 10.4 6.5 10.95 7.05 11.55 7.65 12.4 7.65 13.25 7.65 13.8 7.05 14.4 6.5 14.4 5.65 Z"/>
</g>

<g id="smilies_vampire_0_Layer1_0_FILL">
<path fill="#FF0000" stroke="none" d="
M 3.2 11.65
Q 4.45 17 9.5 17.25 15 16.7 15.6 11.45 9.25 12.65 3.2 11.65 Z"/>
</g>

<g id="smilies_vampire_0_Layer0_0_FILL">
<path fill="#FFFFFF" stroke="none" d="
M 4.9 11.9
L 5.75 15.4 8.1 12.1 4.9 11.9
M 12.7 15.55
L 13.65 11.8 10.45 12.1 12.7 15.55 Z"/>
</g>

<g id="smilies_kiss_0_Layer0_0_FILL">
<path fill="#FF0000" stroke="none" d="
M 19 7.1
Q 16.194140625 6.5029296875 14.35 2.5 12.545703125 -1.4830078125 9.4 5.45 6.6404296875 -1.269140625 4.05 2.65 1.516015625 6.6271484375 0 7.2 6.1390625 15.2986328125 9.2 15.2 12.39453125 15.1642578125 19 7.1
M 12.75 2.2
L 11.35 3.8 12.75 2.2
M 5.8 2.3
L 4.5 4.2 5.8 2.3
M 4.35 8.95
Q 9.2328125 15.2525390625 14.4 8.65 9.2328125 15.2525390625 4.35 8.95
M 7 7.95
Q 9.4326171875 8.4208984375 11.3 7.95 9.4326171875 8.4208984375 7 7.95 Z"/>
</g>

<path id="smilies_sleepy_0_Layer0_0_1_STROKES" stroke="#990000" stroke-width="1" stroke-linejoin="round" stroke-linecap="round" fill="none" d="
M 4.05 12.25
Q 9.7013671875 18.20390625 14.9 12.15"/>

<path id="smilies_sleepy_0_Layer0_0_2_STROKES" stroke="#333333" stroke-width="1" stroke-linejoin="round" stroke-linecap="round" fill="none" d="
M 15.05 6.45
Q 12.651171875 9.65078125 10.25 6.5
M 8.25 6.45
Q 5.851171875 9.65078125 3.45 6.5"/>

<path id="smilies_vampire_0_Layer2_0_1_STROKES" stroke="#000000" stroke-width="1" stroke-linejoin="round" stroke-linecap="round" fill="none" d="
M 12.3 10.05
L 15.1 10.05 15.1 15.5 3.4 15.5 3.4 12.45 2.9 12.45 2.9 6.1 12 6.1 12 8.5 12.3 8.5 12.3 10.05 Z
M 3.4 12.45
L 8.25 12.45 8.25 8.5 12 8.5
M 12.3 10.05
L 12.3 12.7 8.25 12.7 8.25 12.45"/>

<path id="smilies_biggrin_0_Layer1_0_1_STROKES" stroke="#990000" stroke-width="1" stroke-linejoin="round" stroke-linecap="round" fill="none" d="
M 4.7 15.45
Q 2.9 13.4 2.9 11.1 8.95 12.25 15.65 11 15.85 13.55 14.2 15.5 12.4 17.6 9.4 17.65 6.65 17.7 4.7 15.45 Z"/>

<path id="smilies_biggrin_0_Layer1_0_2_STROKES" stroke="#333333" stroke-width="1" stroke-linejoin="round" stroke-linecap="round" fill="none" d="
M 12.8 1.45
Q 13.95 1.45 14.8 2.55 15.65 3.65 15.65 5.2 15.65 6.75 14.8 7.85 13.95 8.95 12.8 8.95 11.7 8.95 10.85 7.85 10 6.75 10 5.2 10 3.65 10.85 2.55 11.7 1.45 12.8 1.45 Z
M 7.45 2.55
Q 8.3 3.65 8.3 5.2 8.3 6.75 7.45 7.85 6.6 8.95 5.45 8.95 4.35 8.95 3.5 7.85 2.65 6.75 2.65 5.2 2.65 3.65 3.5 2.55 4.35 1.45 5.45 1.45 6.6 1.45 7.45 2.55 Z"/>

<path id="smilies_kiss_0_Layer0_0_1_STROKES" stroke="#FFFFFF" stroke-width="1" stroke-linejoin="round" stroke-linecap="round" fill="none" d="
M 12.75 2.2
L 11.35 3.8
M 5.8 2.3
L 4.5 4.2
M 4.35 8.95
Q 9.2328125 15.2525390625 14.4 8.65"/>

<path id="smilies_kiss_0_Layer0_0_2_STROKES" stroke="#CC0000" stroke-width="1" stroke-linejoin="round" stroke-linecap="round" fill="none" d="
M 7 7.95
Q 9.4326171875 8.4208984375 11.3 7.95"/>
</defs>

<g transform="matrix( 0.5271453857421875, 0, 0, 0.5257415771484375, 0.9,8.15) ">
<g transform="matrix( 1, 0, 0, 1, 0,0.05) ">
<g transform="matrix( 1, 0, 0, 1, 0,0) ">
<use xlink:href="#smilies_smileback_0_Layer2_0_FILL"/>
</g>

<g transform="matrix( 1, 0, 0, 1, 0,0) ">
<use xlink:href="#smilies_smileback_0_Layer1_0_FILL"/>
</g>
</g>

<g transform="matrix( 1, 0, 0, 1, 0,0) ">
<use xlink:href="#smilies_sleepy_0_Layer0_0_1_STROKES"/>

<use xlink:href="#smilies_sleepy_0_Layer0_0_2_STROKES"/>
</g>
</g>

<g transform="matrix( 0.45526123046875, 0, 0, 0.45526123046875, 9.5,9.5) ">
<g transform="matrix( 1, 0, 0, 1, 0,0) ">
<use xlink:href="#smilies_star_0_Layer0_0_FILL"/>
</g>
</g>

<g transform="matrix( 0.5271453857421875, 0, 0, 0.52435302734375, 8.15,0.9) ">
<g transform="matrix( 1, 0, 0, 1, 0,0) ">
<use xlink:href="#smilies_vampire_0_Layer2_0_FILL"/>

<use xlink:href="#smilies_vampire_0_Layer2_0_1_STROKES"/>
</g>

<g transform="matrix( 1, 0, 0, 1.00262451171875, 0,0) ">
<g transform="matrix( 1, 0, 0, 1, 0,0.05) ">
<g transform="matrix( 1, 0, 0, 1, 0,0) ">
<use xlink:href="#smilies_smileback_0_Layer2_0_FILL"/>
</g>

<g transform="matrix( 1, 0, 0, 1, 0,0) ">
<use xlink:href="#smilies_smileback_0_Layer1_0_FILL"/>
</g>
</g>

<g transform="matrix( 1, 0, 0, 1, 0,0) ">
<use xlink:href="#smilies_biggrin_0_Layer1_0_FILL"/>

<use xlink:href="#smilies_biggrin_0_Layer1_0_1_STROKES"/>

<use xlink:href="#smilies_biggrin_0_Layer1_0_2_STROKES"/>
</g>

<g transform="matrix( 1, 0, 0, 1, 0,0) ">
<use xlink:href="#smilies_biggrin_0_Layer0_0_FILL"/>
</g>
</g>

<g transform="matrix( 1, 0, 0, 1, 0,0) ">
<use xlink:href="#smilies_vampire_0_Layer1_0_FILL"/>
</g>

<g transform="matrix( 1, 0, 0, 1, 0,0) ">
<use xlink:href="#smilies_vampire_0_Layer0_0_FILL"/>
</g>
</g>

<g transform="matrix( 0.5271453857421875, 0, 0, 0.5257720947265625, 0.9,0.4) ">
<g transform="matrix( 1, 0, 0, 1, 0,0) ">
<use xlink:href="#smilies_kiss_0_Layer0_0_FILL"/>

<use xlink:href="#smilies_kiss_0_Layer0_0_1_STROKES"/>

<use xlink:href="#smilies_kiss_0_Layer0_0_2_STROKES"/>
</g>
</g>
</svg>
