
<svg xmlns="http://www.w3.org/2000/svg" version="1.1" xmlns:xlink="http://www.w3.org/1999/xlink" preserveAspectRatio="none" x="0px" y="0px" width="40px" height="40px" viewBox="0 0 40 40">
<defs>
<g id="Layer5_0_FILL">
<path fill="#96989D" stroke="none" d="
M 38.7 22.4
Q 38.5 23.55 38.05 24.7 36.8 28.2 33.3 31.05 27.75 35.65 19.8 35.65 11.85 35.65 6.25 31.05 2.85 28.2 1.55 24.7 1.1 23.55 0.9 22.4
L 0.75 27.4
Q 2.15 30.95 5.7 33.75 11.5 38.35 19.7 38.35 27.95 38.35 33.7 33.75 37.35 30.95 38.7 27.4
L 38.7 22.4 Z"/>

<path fill="#FFFFFF" stroke="none" d="
M 38.9 20
Q 38.9 13.55 33.3 9 27.75 4.4 19.8 4.4 11.85 4.4 6.25 9 0.7 13.55 0.7 20 0.7 21.2 0.9 22.4 1.1 23.55 1.55 24.7 2.85 28.2 6.25 31.05 11.85 35.65 19.8 35.65 27.75 35.65 33.3 31.05 36.8 28.2 38.05 24.7 38.5 23.55 38.7 22.4 38.8 21.55 38.9 20.55 38.9 20.3 38.9 20 Z"/>
</g>

<g id="Layer4_0_FILL">
<path fill="#BA2215" stroke="none" d="
M 36.3 13.5
Q 36.3 8.7 31.5 5.3 26.7 1.95 19.95 1.95 13.15 1.95 8.35 5.3 3.65 8.7 3.65 13.5 3.65 14.35 3.75 15.25 4.5 18.9 8.35 21.65 11.5 23.9 15.5 24.7 17.6 25.05 19.95 25.05 22.25 25.05 24.5 24.7 26.4 24.3 28.05 23.55 29.9 22.85 31.5 21.65 35.4 18.9 36.1 15.25 36.3 14.35 36.3 13.5 Z"/>

<path fill="#7C1612" stroke="none" d="
M 30.4 24.7
Q 30.95 24.25 31.5 23.8 35.95 20.3 36.1 15.25 35.4 18.9 31.5 21.65 29.9 22.85 28.05 23.55 26.4 24.3 24.5 24.7 22.25 25.05 19.95 25.05 17.6 25.05 15.5 24.7 11.5 23.9 8.35 21.65 4.5 18.9 3.75 15.25 3.9 20.3 8.35 23.8 8.85 24.25 9.45 24.7 10.55 25.5 11.85 26.05 15.5 27.7 19.95 27.7 25.95 27.7 30.4 24.7 Z"/>
</g>

<g id="Layer3_0_FILL">
<path fill="#FFFFFF" stroke="none" d="
M 5.45 9.85
Q 7.7 20.3 26.2 16.85
L 27.45 21 35.1 11.15 23.65 5.45 24.7 9.85
Q 8.1 14.2 5.45 9.85 Z"/>
</g>

<path id="Layer5_0_1_STROKES" stroke="#000000" stroke-width="1" stroke-linejoin="round" stroke-linecap="round" fill="none" d="
M 0.9 22.4
Q 0.7 21.2 0.7 20 0.7 13.55 6.25 9 11.85 4.4 19.8 4.4 27.75 4.4 33.3 9 38.9 13.55 38.9 20 38.9 20.3 38.9 20.55 38.8 21.55 38.7 22.4
L 38.7 27.4
Q 37.35 30.95 33.7 33.75 27.95 38.35 19.7 38.35 11.5 38.35 5.7 33.75 2.15 30.95 0.75 27.4
L 0.9 22.4
Q 1.1 23.55 1.55 24.7 2.85 28.2 6.25 31.05 11.85 35.65 19.8 35.65 27.75 35.65 33.3 31.05 36.8 28.2 38.05 24.7 38.5 23.55 38.7 22.4"/>

<path id="Layer4_0_1_STROKES" stroke="#000000" stroke-width="1" stroke-linejoin="round" stroke-linecap="round" fill="none" d="
M 36.1 15.25
Q 35.95 20.3 31.5 23.8 30.95 24.25 30.4 24.7 25.95 27.7 19.95 27.7 15.5 27.7 11.85 26.05 10.55 25.5 9.45 24.7 8.85 24.25 8.35 23.8 3.9 20.3 3.75 15.25 3.65 14.35 3.65 13.5 3.65 8.7 8.35 5.3 13.15 1.95 19.95 1.95 26.7 1.95 31.5 5.3 36.3 8.7 36.3 13.5 36.3 14.35 36.1 15.25 35.4 18.9 31.5 21.65 29.9 22.85 28.05 23.55 26.4 24.3 24.5 24.7 22.25 25.05 19.95 25.05 17.6 25.05 15.5 24.7 11.5 23.9 8.35 21.65 4.5 18.9 3.75 15.25"/>

<path id="Layer3_0_1_STROKES" stroke="#999999" stroke-width="1" stroke-linejoin="round" stroke-linecap="round" fill="none" d="
M 5.45 9.85
Q 8.1 14.2 24.7 9.85
L 23.65 5.45 35.1 11.15 27.45 21 26.2 16.85
Q 7.7 20.3 5.45 9.85 Z"/>
</defs>

<g transform="matrix( 1, 0, 0, 1, 0,0) ">
<use xlink:href="#Layer5_0_FILL"/>

<use xlink:href="#Layer5_0_1_STROKES"/>
</g>

<g transform="matrix( 1, 0, 0, 1, 0,0) ">
<use xlink:href="#Layer4_0_FILL"/>

<use xlink:href="#Layer4_0_1_STROKES"/>
</g>

<g transform="matrix( 1, 0, 0, 1, 0,0) ">
<use xlink:href="#Layer3_0_FILL"/>

<use xlink:href="#Layer3_0_1_STROKES"/>
</g>
</svg>
