
<svg xmlns="http://www.w3.org/2000/svg" version="1.1" xmlns:xlink="http://www.w3.org/1999/xlink" preserveAspectRatio="none" x="0px" y="0px" width="40px" height="40px" viewBox="0 0 40 40">
<defs>
<radialGradient id="Gradient_1" gradientUnits="userSpaceOnUse" cx="0" cy="0" r="9.667964172978714" fx="0" fy="0" gradientTransform="matrix( 0.4835557844811113, -0.8753135457051132, 0.5145861022018243, 0.28185871929647666, 8.15,13.8) " spreadMethod="pad">
<stop  offset="0%" stop-color="#000000" stop-opacity="0.4117647058823529"/>

<stop  offset="100%" stop-color="#013198" stop-opacity="0"/>
</radialGradient>

<radialGradient id="Gradient_2" gradientUnits="userSpaceOnUse" cx="0" cy="0" r="5.021096120370531" fx="0" fy="0" gradientTransform="matrix( 0.7767228323269383, -0.6298425531369083, 0.4008088974507598, 0.4929202589767108, 6.9,5.15) " spreadMethod="pad">
<stop  offset="0%" stop-color="#000000" stop-opacity="0.4235294117647059"/>

<stop  offset="100%" stop-color="#013198" stop-opacity="0"/>
</radialGradient>

<g id="Extra_Symbols__Ignore_This_Folder___Chatter_ChatterB_0_Layer0_0_FILL">
<path fill="#009900" stroke="none" d="
M 8.3 3.4
Q 8.2974609375 1.993359375 7.3 1 6.3072265625 0.00390625 4.9 0 3.492578125 0.00390625 2.5 1 1.50234375 1.993359375 1.5 3.4 1.50234375 4.806640625 2.5 5.8 3.492578125 6.78359375 4.9 6.75 3.2388671875 6.9326171875 1.7 9.1 -0.062109375 11.6072265625 0 14.85 0.025 15.912890625 5.15 16 10.26640625 16.0830078125 10.2 15.05 10.011328125 11.7240234375 8.45 9.2 6.997265625 6.7763671875 5.15 6.75 6.40390625 6.6900390625 7.3 5.8 8.2974609375 4.806640625 8.3 3.4 Z"/>
</g>

<g id="Extra_Symbols__Ignore_This_Folder__pawn_0_Layer1_0_FILL">
<path fill="url(#Gradient_1)" stroke="none" d="
M 5.45 7.3
L 5.4 7.3
Q 3.75 7.45 2.2 9.65 0.45 12.1 0.5 15.4 0.55 16.4 5.65 16.5 10.75 16.6 10.7 15.55 10.5 12.2 9 9.75 7.5 7.3 5.7 7.3 5.55 7.3 5.45 7.3
M 2.7 14.9
Q 3 10.65 5.4 9.1 3 10.65 2.7 14.9 Z"/>

<path fill="url(#Gradient_2)" stroke="none" d="
M 7.8 1.5
Q 6.8 0.5 5.4 0.5 4 0.5 3 1.5 2 2.5 2 3.9 2 5.3 3 6.3 4 7.3 5.4 7.3
L 5.45 7.3
Q 5.55 7.3 5.7 7.3 6.9 7.2 7.8 6.3 8.8 5.3 8.8 3.9 8.8 2.5 7.8 1.5
M 3.7 3.95
Q 3.9 2.65 5 2.1 3.9 2.65 3.7 3.95 Z"/>
</g>

<g id="Extra_Symbols__Ignore_This_Folder___Extra_pawnb_0_Layer2_0_FILL">
<path fill="#0033FF" stroke="none" d="
M 8.8 3.9
Q 8.8 2.5 7.8 1.5 6.8 0.5 5.4 0.5 4 0.5 3 1.5 2 2.5 2 3.9 2 5.3 3 6.3 4 7.3 5.4 7.3 3.75 7.45 2.2 9.65 0.45 12.1 0.5 15.4 0.55 16.4 5.65 16.5 10.75 16.6 10.7 15.55 10.5 12.2 9 9.75 7.5 7.3 5.7 7.3 6.9 7.2 7.8 6.3 8.8 5.3 8.8 3.9 Z"/>
</g>

<g id="Extra_Symbols__Ignore_This_Folder___Extra_pawnb_0_Layer1_0_FILL">
<path fill="url(#Gradient_1)" stroke="none" d="
M 5.45 7.3
L 5.4 7.3
Q 3.75 7.45 2.2 9.65 0.45 12.1 0.5 15.4 0.55 16.4 5.65 16.5 10.75 16.6 10.7 15.55 10.5 12.2 9 9.75 7.5 7.3 5.7 7.3 5.55 7.3 5.45 7.3
M 2.7 14.9
Q 3 10.65 5.4 9.1 3 10.65 2.7 14.9 Z"/>

<path fill="url(#Gradient_2)" stroke="none" d="
M 7.8 1.5
Q 6.8 0.5 5.4 0.5 4 0.5 3 1.5 2 2.5 2 3.9 2 5.3 3 6.3 4 7.3 5.4 7.3
L 5.45 7.3
Q 5.55 7.3 5.7 7.3 6.9 7.2 7.8 6.3 8.8 5.3 8.8 3.9 8.8 2.5 7.8 1.5
M 3.7 3.95
Q 3.9 2.65 5 2.1 3.9 2.65 3.7 3.95 Z"/>
</g>

<g id="Extra_Symbols__Ignore_This_Folder___Extra_pawnr_0_Layer2_0_FILL">
<path fill="#FF0000" stroke="none" d="
M 8.8 3.9
Q 8.8 2.5 7.8 1.5 6.8 0.5 5.4 0.5 4 0.5 3 1.5 2 2.5 2 3.9 2 5.3 3 6.3 4 7.3 5.4 7.3 3.75 7.45 2.2 9.65 0.45 12.1 0.5 15.4 0.55 16.4 5.65 16.5 10.75 16.6 10.7 15.55 10.5 12.2 9 9.75 7.5 7.3 5.7 7.3 6.9 7.2 7.8 6.3 8.8 5.3 8.8 3.9 Z"/>
</g>

<g id="Extra_Symbols__Ignore_This_Folder___Extra_pawnr_0_Layer1_0_FILL">
<path fill="url(#Gradient_1)" stroke="none" d="
M 5.45 7.3
L 5.4 7.3
Q 3.75 7.45 2.2 9.65 0.45 12.1 0.5 15.4 0.55 16.4 5.65 16.5 10.75 16.6 10.7 15.55 10.5 12.2 9 9.75 7.5 7.3 5.7 7.3 5.55 7.3 5.45 7.3
M 2.7 14.9
Q 3 10.65 5.4 9.1 3 10.65 2.7 14.9 Z"/>

<path fill="url(#Gradient_2)" stroke="none" d="
M 7.8 1.5
Q 6.8 0.5 5.4 0.5 4 0.5 3 1.5 2 2.5 2 3.9 2 5.3 3 6.3 4 7.3 5.4 7.3
L 5.45 7.3
Q 5.55 7.3 5.7 7.3 6.9 7.2 7.8 6.3 8.8 5.3 8.8 3.9 8.8 2.5 7.8 1.5
M 3.7 3.95
Q 3.9 2.65 5 2.1 3.9 2.65 3.7 3.95 Z"/>
</g>

<g id="Extra_Symbols__Ignore_This_Folder___Extra_pawng_0_Layer2_0_FILL">
<path fill="#FF6600" stroke="none" d="
M 8.8 3.9
Q 8.8 2.5 7.8 1.5 6.8 0.5 5.4 0.5 4 0.5 3 1.5 2 2.5 2 3.9 2 5.3 3 6.3 4 7.3 5.4 7.3 3.75 7.45 2.2 9.65 0.45 12.1 0.5 15.4 0.55 16.4 5.65 16.5 10.75 16.6 10.7 15.55 10.5 12.2 9 9.75 7.5 7.3 5.7 7.3 6.9 7.2 7.8 6.3 8.8 5.3 8.8 3.9 Z"/>
</g>

<g id="Extra_Symbols__Ignore_This_Folder___Extra_pawng_0_Layer1_0_FILL">
<path fill="url(#Gradient_1)" stroke="none" d="
M 5.45 7.3
L 5.4 7.3
Q 3.75 7.45 2.2 9.65 0.45 12.1 0.5 15.4 0.55 16.4 5.65 16.5 10.75 16.6 10.7 15.55 10.5 12.2 9 9.75 7.5 7.3 5.7 7.3 5.55 7.3 5.45 7.3
M 2.7 14.9
Q 3 10.65 5.4 9.1 3 10.65 2.7 14.9 Z"/>

<path fill="url(#Gradient_2)" stroke="none" d="
M 7.8 1.5
Q 6.8 0.5 5.4 0.5 4 0.5 3 1.5 2 2.5 2 3.9 2 5.3 3 6.3 4 7.3 5.4 7.3
L 5.45 7.3
Q 5.55 7.3 5.7 7.3 6.9 7.2 7.8 6.3 8.8 5.3 8.8 3.9 8.8 2.5 7.8 1.5
M 3.7 3.95
Q 3.9 2.65 5 2.1 3.9 2.65 3.7 3.95 Z"/>
</g>

<path id="Extra_Symbols__Ignore_This_Folder__pawn_0_Layer1_0_1_STROKES" stroke="#000000" stroke-opacity="0.6509803921568628" stroke-width="1" stroke-linejoin="round" stroke-linecap="round" fill="none" d="
M 5.4 7.3
Q 4 7.3 3 6.3 2 5.3 2 3.9 2 2.5 3 1.5 4 0.5 5.4 0.5 6.8 0.5 7.8 1.5 8.8 2.5 8.8 3.9 8.8 5.3 7.8 6.3 6.9 7.2 5.7 7.3 7.5 7.3 9 9.75 10.5 12.2 10.7 15.55 10.75 16.6 5.65 16.5 0.55 16.4 0.5 15.4 0.45 12.1 2.2 9.65 3.75 7.45 5.4 7.3 Z"/>

<path id="Extra_Symbols__Ignore_This_Folder__pawn_0_Layer1_0_2_STROKES" stroke="#FFFFFF" stroke-width="1" stroke-linejoin="round" stroke-linecap="round" fill="none" d="
M 3.7 3.95
Q 3.9 2.65 5 2.1
M 2.7 14.9
Q 3 10.65 5.4 9.1"/>

<path id="Extra_Symbols__Ignore_This_Folder__pawn_0_Layer1_0_3_STROKES" stroke="#000000" stroke-width="1" stroke-linejoin="round" stroke-linecap="round" fill="none" d="
M 5.45 7.3
L 5.4 7.3"/>

<path id="Extra_Symbols__Ignore_This_Folder___Extra_pawnb_0_Layer1_0_1_STROKES" stroke="#000000" stroke-opacity="0.6509803921568628" stroke-width="1" stroke-linejoin="round" stroke-linecap="round" fill="none" d="
M 5.4 7.3
Q 4 7.3 3 6.3 2 5.3 2 3.9 2 2.5 3 1.5 4 0.5 5.4 0.5 6.8 0.5 7.8 1.5 8.8 2.5 8.8 3.9 8.8 5.3 7.8 6.3 6.9 7.2 5.7 7.3 7.5 7.3 9 9.75 10.5 12.2 10.7 15.55 10.75 16.6 5.65 16.5 0.55 16.4 0.5 15.4 0.45 12.1 2.2 9.65 3.75 7.45 5.4 7.3 Z"/>

<path id="Extra_Symbols__Ignore_This_Folder___Extra_pawnb_0_Layer1_0_2_STROKES" stroke="#FFFFFF" stroke-width="1" stroke-linejoin="round" stroke-linecap="round" fill="none" d="
M 3.7 3.95
Q 3.9 2.65 5 2.1
M 2.7 14.9
Q 3 10.65 5.4 9.1"/>

<path id="Extra_Symbols__Ignore_This_Folder___Extra_pawnb_0_Layer1_0_3_STROKES" stroke="#000000" stroke-width="1" stroke-linejoin="round" stroke-linecap="round" fill="none" d="
M 5.45 7.3
L 5.4 7.3"/>

<path id="Extra_Symbols__Ignore_This_Folder___Extra_pawnr_0_Layer1_0_1_STROKES" stroke="#000000" stroke-opacity="0.6509803921568628" stroke-width="1" stroke-linejoin="round" stroke-linecap="round" fill="none" d="
M 5.4 7.3
Q 4 7.3 3 6.3 2 5.3 2 3.9 2 2.5 3 1.5 4 0.5 5.4 0.5 6.8 0.5 7.8 1.5 8.8 2.5 8.8 3.9 8.8 5.3 7.8 6.3 6.9 7.2 5.7 7.3 7.5 7.3 9 9.75 10.5 12.2 10.7 15.55 10.75 16.6 5.65 16.5 0.55 16.4 0.5 15.4 0.45 12.1 2.2 9.65 3.75 7.45 5.4 7.3 Z"/>

<path id="Extra_Symbols__Ignore_This_Folder___Extra_pawnr_0_Layer1_0_2_STROKES" stroke="#FFFFFF" stroke-width="1" stroke-linejoin="round" stroke-linecap="round" fill="none" d="
M 3.7 3.95
Q 3.9 2.65 5 2.1
M 2.7 14.9
Q 3 10.65 5.4 9.1"/>

<path id="Extra_Symbols__Ignore_This_Folder___Extra_pawnr_0_Layer1_0_3_STROKES" stroke="#000000" stroke-width="1" stroke-linejoin="round" stroke-linecap="round" fill="none" d="
M 5.45 7.3
L 5.4 7.3"/>

<path id="Extra_Symbols__Ignore_This_Folder___Extra_pawng_0_Layer1_0_1_STROKES" stroke="#000000" stroke-opacity="0.6509803921568628" stroke-width="1" stroke-linejoin="round" stroke-linecap="round" fill="none" d="
M 5.4 7.3
Q 4 7.3 3 6.3 2 5.3 2 3.9 2 2.5 3 1.5 4 0.5 5.4 0.5 6.8 0.5 7.8 1.5 8.8 2.5 8.8 3.9 8.8 5.3 7.8 6.3 6.9 7.2 5.7 7.3 7.5 7.3 9 9.75 10.5 12.2 10.7 15.55 10.75 16.6 5.65 16.5 0.55 16.4 0.5 15.4 0.45 12.1 2.2 9.65 3.75 7.45 5.4 7.3 Z"/>

<path id="Extra_Symbols__Ignore_This_Folder___Extra_pawng_0_Layer1_0_2_STROKES" stroke="#FFFFFF" stroke-width="1" stroke-linejoin="round" stroke-linecap="round" fill="none" d="
M 3.7 3.95
Q 3.9 2.65 5 2.1
M 2.7 14.9
Q 3 10.65 5.4 9.1"/>

<path id="Extra_Symbols__Ignore_This_Folder___Extra_pawng_0_Layer1_0_3_STROKES" stroke="#000000" stroke-width="1" stroke-linejoin="round" stroke-linecap="round" fill="none" d="
M 5.45 7.3
L 5.4 7.3"/>
</defs>

<g transform="matrix( 1.3701171875, 0, 0, 1.37078857421875, 4.15,1.7) ">
<g transform="matrix( 1.233154296875, 0, 0, 1.233154296875, 4.6,-0.6) ">
<g id="col0" transform="matrix( 1, 0, 0, 1, 0.5,0.5) ">
<g transform="matrix( 1, 0, 0, 1, 0,0) ">
<use xlink:href="#Extra_Symbols__Ignore_This_Folder___Chatter_ChatterB_0_Layer0_0_FILL"/>
</g>
</g>

<g transform="matrix( 1, 0, 0, 1, 0,0) ">
<use xlink:href="#Extra_Symbols__Ignore_This_Folder__pawn_0_Layer1_0_FILL"/>

<use xlink:href="#Extra_Symbols__Ignore_This_Folder__pawn_0_Layer1_0_1_STROKES"/>

<use xlink:href="#Extra_Symbols__Ignore_This_Folder__pawn_0_Layer1_0_2_STROKES"/>

<use xlink:href="#Extra_Symbols__Ignore_This_Folder__pawn_0_Layer1_0_3_STROKES"/>
</g>
</g>

<g transform="matrix( 1.233154296875, 0, 0, 1.233154296875, -0.6,3) ">
<g transform="matrix( 1, 0, 0, 1, 0,0) ">
<use xlink:href="#Extra_Symbols__Ignore_This_Folder___Extra_pawnb_0_Layer2_0_FILL"/>
</g>

<g transform="matrix( 1, 0, 0, 1, 0,0) ">
<use xlink:href="#Extra_Symbols__Ignore_This_Folder___Extra_pawnb_0_Layer1_0_FILL"/>

<use xlink:href="#Extra_Symbols__Ignore_This_Folder___Extra_pawnb_0_Layer1_0_1_STROKES"/>

<use xlink:href="#Extra_Symbols__Ignore_This_Folder___Extra_pawnb_0_Layer1_0_2_STROKES"/>

<use xlink:href="#Extra_Symbols__Ignore_This_Folder___Extra_pawnb_0_Layer1_0_3_STROKES"/>
</g>
</g>

<g transform="matrix( 1.233154296875, 0, 0, 1.233154296875, 9.9,3) ">
<g transform="matrix( 1, 0, 0, 1, 0,0) ">
<use xlink:href="#Extra_Symbols__Ignore_This_Folder___Extra_pawnr_0_Layer2_0_FILL"/>
</g>

<g transform="matrix( 1, 0, 0, 1, 0,0) ">
<use xlink:href="#Extra_Symbols__Ignore_This_Folder___Extra_pawnr_0_Layer1_0_FILL"/>

<use xlink:href="#Extra_Symbols__Ignore_This_Folder___Extra_pawnr_0_Layer1_0_1_STROKES"/>

<use xlink:href="#Extra_Symbols__Ignore_This_Folder___Extra_pawnr_0_Layer1_0_2_STROKES"/>

<use xlink:href="#Extra_Symbols__Ignore_This_Folder___Extra_pawnr_0_Layer1_0_3_STROKES"/>
</g>
</g>

<g transform="matrix( 1.233154296875, 0, 0, 1.233154296875, 4.6,6.35) ">
<g transform="matrix( 1, 0, 0, 1, 0,0) ">
<use xlink:href="#Extra_Symbols__Ignore_This_Folder___Extra_pawng_0_Layer2_0_FILL"/>
</g>

<g transform="matrix( 1, 0, 0, 1, 0,0) ">
<use xlink:href="#Extra_Symbols__Ignore_This_Folder___Extra_pawng_0_Layer1_0_FILL"/>

<use xlink:href="#Extra_Symbols__Ignore_This_Folder___Extra_pawng_0_Layer1_0_1_STROKES"/>

<use xlink:href="#Extra_Symbols__Ignore_This_Folder___Extra_pawng_0_Layer1_0_2_STROKES"/>

<use xlink:href="#Extra_Symbols__Ignore_This_Folder___Extra_pawng_0_Layer1_0_3_STROKES"/>
</g>
</g>
</g>
</svg>
