
<svg xmlns="http://www.w3.org/2000/svg" version="1.1" xmlns:xlink="http://www.w3.org/1999/xlink" preserveAspectRatio="none" x="0px" y="0px" width="40px" height="40px" viewBox="0 0 40 40">
<defs>
<g id="Layer3_0_FILL">
<path fill="#333333" fill-opacity="0.24705882352941178" stroke="none" d="
M 37.95 4.9
Q 37.75 3.6 36.95 2.85 35.9 2.05 34.7 2.2 33.5 2.05 32.65 3
L 18.3 15.6 17.65 13.5
Q 17.4 12.65 16.6 12 15.8 11.35 14.8 11.35 13.9 11.2 12.9 11.7 12.1 12.2 11.8 13.2
L 1.9 34.2
Q 1.3 35.2 1.65 36.35 1.9 37.35 2.95 38.2 3.75 38.8 4.9 38.8 6.1 38.75 6.9 37.95
L 16.35 29.65 16.65 30.5
Q 17.1 31.7 18.25 32.3 19.3 32.8 20.5 32.6 21.65 32.15 22.35 31.1
L 37.55 7.15
Q 38.15 6 37.95 4.9
M 36.3 3.45
Q 37 4.1 37.15 4.95 37.35 5.8 36.8 6.6
L 21.65 30.8
Q 21.15 31.5 20.35 31.75 19.3 32 18.5 31.55 17.7 31.05 17.5 30.25
L 16.65 28.35 6.45 37.35
Q 5.65 37.95 4.9 37.95 4.1 37.95 3.4 37.5 2.75 36.95 2.5 36.1 2.25 35.3 2.7 34.65
L 12.4 13.5
Q 12.7 12.75 13.45 12.45 13.95 12 14.75 12.15 15.55 12.2 16.05 12.65 16.65 13.05 16.95 13.8
L 17.9 16.95 33.2 3.45
Q 33.85 3 34.7 3 35.7 2.85 36.3 3.45 Z"/>

<path fill="#333333" fill-opacity="0.4980392156862745" stroke="none" d="
M 37.15 4.95
Q 37 4.1 36.3 3.45 35.7 2.85 34.7 3 33.85 3 33.2 3.45
L 17.9 16.95 16.95 13.8
Q 16.65 13.05 16.05 12.65 15.55 12.2 14.75 12.15 13.95 12 13.45 12.45 12.7 12.75 12.4 13.5
L 2.7 34.65
Q 2.25 35.3 2.5 36.1 2.75 36.95 3.4 37.5 4.1 37.95 4.9 37.95 5.65 37.95 6.45 37.35
L 16.65 28.35 17.5 30.25
Q 17.7 31.05 18.5 31.55 19.3 32 20.35 31.75 21.15 31.5 21.65 30.8
L 36.8 6.6
Q 37.35 5.8 37.15 4.95
M 35.75 4.1
Q 36.2 4.5 36.35 5.15 36.35 5.55 36.15 6.2
L 21 30.25
Q 20.75 30.9 20.15 30.95 19.5 31.05 19.05 30.95 18.3 30.5 18.1 29.9
L 17.1 26.9 5.95 36.7
Q 5.4 37.1 4.9 37.15 4.3 37.15 3.85 36.7 3.4 36.45 3.15 35.9 3.05 35.3 3.4 34.8
L 13.25 13.85
Q 13.45 13.35 13.9 13.2 14.15 12.8 14.7 12.8 15.15 12.8 15.75 13.25 15.9 13.5 16.05 14.05
L 17.5 18.35 33.8 4.1
Q 34.1 3.65 34.7 3.65 35.35 3.65 35.75 4.1 Z"/>

<path fill="#333333" fill-opacity="0.7333333333333333" stroke="none" d="
M 36.35 5.15
Q 36.2 4.5 35.75 4.1 35.35 3.65 34.7 3.65 34.1 3.65 33.8 4.1
L 17.5 18.35 16.05 14.05
Q 15.9 13.5 15.75 13.25 15.15 12.8 14.7 12.8 14.15 12.8 13.9 13.2 13.45 13.35 13.25 13.85
L 3.4 34.8
Q 3.05 35.3 3.15 35.9 3.4 36.45 3.85 36.7 4.3 37.15 4.9 37.15 5.4 37.1 5.95 36.7
L 17.1 26.9 18.1 29.9
Q 18.3 30.5 19.05 30.95 19.5 31.05 20.15 30.95 20.75 30.9 21 30.25
L 36.15 6.2
Q 36.35 5.55 36.35 5.15
M 35.6 5.3
Q 35.7 5.5 35.5 5.8
L 20.35 29.85
Q 20.15 30.2 19.8 30.25 19.55 30.25 19.3 30.2 19.05 30 18.9 29.75
L 17.4 25.45 5.35 36.1
Q 5.05 36.35 4.8 36.35 4.6 36.35 4.35 36.3 4.1 36.05 4.1 35.8 4 35.45 4.1 35.25
L 13.9 14.3
Q 13.95 14 14.15 13.85 14.3 13.8 14.7 13.8 14.8 13.8 15.15 13.85 15.3 14.05 15.35 14.4
L 17.2 19.9 34.3 4.75
Q 34.45 4.5 34.7 4.65 35.1 4.5 35.25 4.75 35.5 4.9 35.6 5.3 Z"/>

<path fill="#FFCC00" stroke="none" d="
M 35.5 5.8
Q 35.7 5.5 35.6 5.3 35.5 4.9 35.25 4.75 35.1 4.5 34.7 4.65 34.45 4.5 34.3 4.75
L 17.2 19.9 15.35 14.4
Q 15.3 14.05 15.15 13.85 14.8 13.8 14.7 13.8 14.3 13.8 14.15 13.85 13.95 14 13.9 14.3
L 4.1 35.25
Q 4 35.45 4.1 35.8 4.1 36.05 4.35 36.3 4.6 36.35 4.8 36.35 5.05 36.35 5.35 36.1
L 17.4 25.45 18.9 29.75
Q 19.05 30 19.3 30.2 19.55 30.25 19.8 30.25 20.15 30.2 20.35 29.85
L 35.5 5.8 Z"/>
</g>
</defs>

<g transform="matrix( 1, 0, 0, 1, 0,0) ">
<use xlink:href="#Layer3_0_FILL"/>
</g>
</svg>
