
<svg xmlns="http://www.w3.org/2000/svg" version="1.1" xmlns:xlink="http://www.w3.org/1999/xlink" preserveAspectRatio="none" x="0px" y="0px" width="19px" height="19px" viewBox="0 0 19 19">
<defs>
<linearGradient id="Gradient_1" gradientUnits="userSpaceOnUse" x1="7.45" y1="15.3" x2="7.95" y2="2.1999999999999993" spreadMethod="pad">
<stop  offset="0.39215686274509803%" stop-color="#52527B"/>

<stop  offset="51.76470588235294%" stop-color="#FFFFFF"/>

<stop  offset="100%" stop-color="#6C35C1"/>
</linearGradient>

<radialGradient id="Gradient_2" gradientUnits="userSpaceOnUse" cx="0" cy="0" r="25.066960326294048" fx="0" fy="0" gradientTransform="matrix( 0.7081034065937822, 0.7061087491104194, -0.5420481711038319, 0.6816741949392255, 18.8,17.3) " spreadMethod="pad">
<stop  offset="0%" stop-color="#FFFFFF"/>

<stop  offset="100%" stop-color="#000000"/>
</radialGradient>

<radialGradient id="Gradient_3" gradientUnits="userSpaceOnUse" cx="0" cy="0" r="9.042132284478038" fx="-0.627450980392157" fy="-0.6262254901960784" gradientTransform="matrix( 0.7077976519970194, 0.7064152347079627, -0.7340635804890963, 0.9220723318008045, -10.65,9.4) " spreadMethod="pad">
<stop  offset="0%" stop-color="#FFFFFF"/>

<stop  offset="100%" stop-color="#000000"/>
</radialGradient>

<g id="MessageList_Speaker_0_Layer3_0_FILL">
<path fill="url(#Gradient_1)" stroke="none" d="
M 13.2 5.95
Q 10.27109375 4.0650390625 6.85 3.55 3.440625 3.034375 1.8 3.85 0.213671875 4.666796875 -0.3 7.5 -0.759375 10.37734375 1.2 11.85 3.1923828125 13.3232421875 6.15 14.15 9.1169921875 14.9775390625 11.95 13.7 14.7419921875 12.509765625 15.4 10.15 16.11640625 7.8353515625 13.2 5.95 Z"/>
</g>

<g id="MessageList_Speaker_0_Layer2_0_FILL">
<path fill="url(#Gradient_2)" stroke="none" d="
M 15.1 21.7
Q 18.69921875 19.76328125 20.25 15.3 21.7984375 10.8337890625 20.4 6.45 19.08984375 2.1267578125 15.65 0.45 12.2021484375 -1.18359375 8.6 0.75 5.0765625 2.8056640625 3.5 7.25 1.9650390625 11.7478515625 3.3 16.05 4.6732421875 20.4544921875 8.1 22.1 11.5736328125 23.752734375 15.1 21.7 Z"/>
</g>

<g id="MessageList_Speaker_0_Layer1_0_FILL">
<path fill="url(#Gradient_3)" stroke="none" d="
M -7.7 16.55
Q -5.9560546875 15.5978515625 -5.2 13.4 -4.4369140625 11.2421875 -5.1 9.1 -5.748828125 6.9853515625 -7.45 6.15 -9.118359375 5.3671875 -10.9 6.3 -12.5998046875 7.3173828125 -13.35 9.5 -14.1189453125 11.685546875 -13.5 13.8 -12.7947265625 15.9421875 -11.1 16.75 -9.425 17.5482421875 -7.7 16.55 Z"/>
</g>

<path id="MessageList_Speaker_0_Layer3_0_1_STROKES" stroke="#52527B" stroke-width="1" stroke-linejoin="round" stroke-linecap="round" fill="none" d="
M 13.2 5.95
Q 16.11640625 7.8353515625 15.425 10.175 14.7419921875 12.509765625 11.95 13.725 9.1169921875 14.9775390625 6.15 14.15 3.1923828125 13.3232421875 1.225 11.85 -0.759375 10.37734375 -0.275 7.525 0.213671875 4.666796875 1.825 3.85 3.440625 3.034375 6.85 3.55 10.27109375 4.0650390625 13.2 5.95 Z"/>

<path id="MessageList_Speaker_0_Layer2_0_1_STROKES" stroke="#5D5D5D" stroke-width="1" stroke-linejoin="round" stroke-linecap="round" fill="none" d="
M 15.125 21.725
Q 11.5736328125 23.752734375 8.125 22.1 4.6732421875 20.4544921875 3.3 16.075 1.9650390625 11.7478515625 3.525 7.275 5.0765625 2.8056640625 8.625 0.775 12.2021484375 -1.18359375 15.65 0.475 19.08984375 2.1267578125 20.425 6.45 21.7984375 10.8337890625 20.25 15.3 18.69921875 19.76328125 15.125 21.725 Z"/>

<path id="MessageList_Speaker_0_Layer1_0_1_STROKES" stroke="#5B5B5B" stroke-width="1" stroke-linejoin="round" stroke-linecap="round" fill="none" d="
M -7.7 16.55
Q -9.425 17.5482421875 -11.1 16.75 -12.7947265625 15.9421875 -13.475 13.8 -14.1189453125 11.685546875 -13.35 9.5 -12.5998046875 7.3173828125 -10.875 6.325 -9.118359375 5.3671875 -7.425 6.175 -5.748828125 6.9853515625 -5.1 9.1 -4.4369140625 11.2421875 -5.2 13.425 -5.9560546875 15.5978515625 -7.7 16.55 Z"/>
</defs>

<g transform="matrix( 0.68951416015625, 0, 0, 0.6897125244140625, 2.35,1.7) ">
<g transform="matrix( 1, 0, 0, 1, 0,0) ">
<use xlink:href="#MessageList_Speaker_0_Layer3_0_FILL"/>

<use xlink:href="#MessageList_Speaker_0_Layer3_0_1_STROKES"/>
</g>

<g transform="matrix( 1, 0, 0, 1, 0,0) ">
<use xlink:href="#MessageList_Speaker_0_Layer2_0_FILL"/>

<use xlink:href="#MessageList_Speaker_0_Layer2_0_1_STROKES"/>
</g>

<g transform="matrix( 1, 0, 0, 1, 20.25,-0.5) ">
<use xlink:href="#MessageList_Speaker_0_Layer1_0_FILL"/>

<use xlink:href="#MessageList_Speaker_0_Layer1_0_1_STROKES"/>
</g>
</g>
</svg>
