
<svg xmlns="http://www.w3.org/2000/svg" version="1.1" xmlns:xlink="http://www.w3.org/1999/xlink" preserveAspectRatio="none" x="0px" y="0px" width="19px" height="19px" viewBox="0 0 19 19">
<defs>
<linearGradient id="Gradient_1" gradientUnits="userSpaceOnUse" x1="7.45" y1="15.3" x2="7.95" y2="2.1999999999999993" spreadMethod="pad">
<stop  offset="0.39215686274509803%" stop-color="#52527B"/>

<stop  offset="51.76470588235294%" stop-color="#FFFFFF"/>

<stop  offset="100%" stop-color="#6C35C1"/>
</linearGradient>

<radialGradient id="Gradient_2" gradientUnits="userSpaceOnUse" cx="0" cy="0" r="25.066960326294048" fx="0" fy="0" gradientTransform="matrix( 0.7081034065937822, 0.7061087491104194, -0.5420481711038319, 0.6816741949392255, 18.8,17.3) " spreadMethod="pad">
<stop  offset="0%" stop-color="#FFFFFF"/>

<stop  offset="100%" stop-color="#000000"/>
</radialGradient>

<radialGradient id="Gradient_3" gradientUnits="userSpaceOnUse" cx="0" cy="0" r="9.042132284478038" fx="-0.6023529411764708" fy="-0.6011764705882353" gradientTransform="matrix( 0.7077976519970194, 0.7064152347079627, -0.7340635804890963, 0.9220723318008045, -10.65,9.4) " spreadMethod="pad">
<stop  offset="0%" stop-color="#FFFFFF"/>

<stop  offset="100%" stop-color="#000000"/>
</radialGradient>

<radialGradient id="Gradient_4" gradientUnits="userSpaceOnUse" cx="0" cy="0" r="12.621856044179875" fx="0" fy="0" gradientTransform="matrix( 0.7071067811865476, -0.7071067811865476, 0.23669260602742978, 0.23669260602742978, 5.85,5.85) " spreadMethod="pad">
<stop  offset="0%" stop-color="#FFFFFF"/>

<stop  offset="80.7843137254902%" stop-color="#A8000C"/>
</radialGradient>

<radialGradient id="Gradient_5" gradientUnits="userSpaceOnUse" cx="0" cy="0" r="39.89850012845095" fx="0" fy="0" gradientTransform="matrix( 0.7071067811865476, -0.7071067811865476, 0.10182087013098269, 0.10182087013098269, 25.1,25.3) " spreadMethod="pad">
<stop  offset="0%" stop-color="#5E0000"/>

<stop  offset="80.7843137254902%" stop-color="#A8000C"/>
</radialGradient>

<g id="Layer3_0_FILL">
<path fill="url(#Gradient_1)" stroke="none" d="
M 13.2 5.95
Q 10.27109375 4.0650390625 6.85 3.55 3.440625 3.034375 1.8 3.85 0.213671875 4.666796875 -0.3 7.5 -0.759375 10.37734375 1.2 11.85 3.1923828125 13.3232421875 6.15 14.15 9.1169921875 14.9775390625 11.95 13.7 14.7419921875 12.509765625 15.4 10.15 16.11640625 7.8353515625 13.2 5.95 Z"/>
</g>

<g id="Layer2_0_FILL">
<path fill="url(#Gradient_2)" stroke="none" d="
M 15.1 21.7
Q 18.69921875 19.76328125 20.25 15.3 21.7984375 10.8337890625 20.4 6.45 19.08984375 2.1267578125 15.65 0.45 12.2021484375 -1.18359375 8.6 0.75 5.0765625 2.8056640625 3.5 7.25 1.9650390625 11.7478515625 3.3 16.05 4.6732421875 20.4544921875 8.1 22.1 11.5736328125 23.752734375 15.1 21.7 Z"/>
</g>

<g id="Layer1_0_FILL">
<path fill="url(#Gradient_3)" stroke="none" d="
M -7.7 16.55
Q -5.9560546875 15.5978515625 -5.2 13.4 -4.4369140625 11.2421875 -5.1 9.1 -5.748828125 6.9853515625 -7.45 6.15 -9.118359375 5.3671875 -10.9 6.3 -12.5998046875 7.3173828125 -13.35 9.5 -14.1189453125 11.685546875 -13.5 13.8 -12.7947265625 15.9421875 -11.1 16.75 -9.425 17.5482421875 -7.7 16.55 Z"/>
</g>

<g id="MessageList_SoundOff_0_Layer0_0_FILL">
<path fill="#FFFFFF" stroke="none" d="
M 16.05 4
Q 15.7560546875 4 15.45 4 10.7 4 7.35 7.35 4 10.7 4 15.45 4 15.7560546875 4 16.05 4.1640625 19.262890625 5.9 21.8
L 21.8 5.9
Q 19.26015625 4.162109375 16.05 4
M 26.9 15.45
Q 26.9 14.6552734375 26.8 13.9 26.4486328125 11.0408203125 24.75 8.75
L 8.75 24.75
Q 9.48203125 25.2927734375 10.25 25.7 10.5701171875 25.851953125 10.85 25.95 10.9408203125 26.004296875 11 26 12.6466796875 26.733984375 14.5 26.85 14.9830078125 26.9 15.45 26.9 20.2 26.9 23.55 23.55 26.9 20.2 26.9 15.45 Z"/>

<path fill="url(#Gradient_4)" stroke="none" d="
M 17.7 0.15
Q 16.6423828125 0 15.5 0 9.1 0 4.55 4.55 0 9.1 0 15.5 0 16.642578125 0.15 17.7 0.7474609375 17.551953125 1.4 17.3 2.7099609375 16.788671875 4 16.05 4 15.7560546875 4 15.45 4 10.7 7.35 7.35 10.7 4 15.45 4 15.7560546875 4 16.05 4 16.7873046875 2.6974609375 17.3 1.35 17.54765625 0.7353515625 17.7 0.15 Z"/>

<path fill="#A8000C" stroke="none" d="
M 26.8 13.9
Q 28.2740234375 13.0470703125 29.75 12.45 30.21953125 12.2931640625 30.65 12.15 29.76015625 7.86015625 26.45 4.55 22.7115234375 0.8115234375 17.7 0.15 17.54765625 0.7353515625 17.3 1.35 16.7873046875 2.6974609375 16.05 4 19.26015625 4.162109375 21.8 5.9
L 5.9 21.8
Q 4.1640625 19.262890625 4 16.05 2.7099609375 16.788671875 1.4 17.3 0.7474609375 17.551953125 0.15 17.7 0.8138671875 22.7138671875 4.55 26.45 5.0779296875 26.9779296875 5.6 27.45 5.6798828125 27.49609375 5.7 27.55 9.00234375 30.2404296875 13.1 30.8 13.3345703125 29.721875 13.85 28.4 14.1466796875 27.6326171875 14.5 26.85 12.6466796875 26.733984375 11 26 10.9408203125 26.004296875 10.85 25.95 10.5701171875 25.851953125 10.25 25.7 9.48203125 25.2927734375 8.75 24.75
L 24.75 8.75
Q 26.4486328125 11.0408203125 26.8 13.9 Z"/>

<path fill="url(#Gradient_5)" stroke="none" d="
M 31 15.5
Q 31 13.7544921875 30.65 12.15 30.21953125 12.2931640625 29.75 12.45 28.2740234375 13.0470703125 26.8 13.9 26.9 14.6552734375 26.9 15.45 26.9 20.2 23.55 23.55 20.2 26.9 15.45 26.9 14.9830078125 26.9 14.5 26.85 14.1466796875 27.6326171875 13.85 28.4 13.3345703125 29.721875 13.1 30.8 14.278515625 31 15.5 31 21.9 31 26.45 26.45 31 21.9 31 15.5 Z"/>
</g>

<path id="Layer3_0_1_STROKES" stroke="#52527B" stroke-width="0.05" stroke-linejoin="round" stroke-linecap="round" fill="none" d="
M 13.2 5.95
Q 16.11640625 7.8353515625 15.425 10.175 14.7419921875 12.509765625 11.95 13.725 9.1169921875 14.9775390625 6.15 14.15 3.1923828125 13.3232421875 1.225 11.85 -0.759375 10.37734375 -0.275 7.525 0.213671875 4.666796875 1.825 3.85 3.440625 3.034375 6.85 3.55 10.27109375 4.0650390625 13.2 5.95 Z"/>

<path id="Layer2_0_1_STROKES" stroke="#5D5D5D" stroke-width="0.05" stroke-linejoin="round" stroke-linecap="round" fill="none" d="
M 15.125 21.725
Q 11.5736328125 23.752734375 8.125 22.1 4.6732421875 20.4544921875 3.3 16.075 1.9650390625 11.7478515625 3.525 7.275 5.0765625 2.8056640625 8.625 0.775 12.2021484375 -1.18359375 15.65 0.475 19.08984375 2.1267578125 20.425 6.45 21.7984375 10.8337890625 20.25 15.3 18.69921875 19.76328125 15.125 21.725 Z"/>

<path id="Layer1_0_1_STROKES" stroke="#5B5B5B" stroke-width="0.05" stroke-linejoin="round" stroke-linecap="round" fill="none" d="
M -7.7 16.55
Q -9.425 17.5482421875 -11.1 16.75 -12.7947265625 15.9421875 -13.475 13.8 -14.1189453125 11.685546875 -13.35 9.5 -12.5998046875 7.3173828125 -10.875 6.325 -9.118359375 5.3671875 -7.425 6.175 -5.748828125 6.9853515625 -5.1 9.1 -4.4369140625 11.2421875 -5.2 13.425 -5.9560546875 15.5978515625 -7.7 16.55 Z"/>
</defs>

<g transform="matrix( 0.68951416015625, 0, 0, 0.6897125244140625, 2.35,1.7) ">
<g transform="matrix( 1, 0, 0, 1, 0,0) ">
<use xlink:href="#Layer3_0_FILL"/>

<use xlink:href="#Layer3_0_1_STROKES"/>
</g>

<g transform="matrix( 1, 0, 0, 1, 0,0) ">
<use xlink:href="#Layer2_0_FILL"/>

<use xlink:href="#Layer2_0_1_STROKES"/>
</g>

<g transform="matrix( 1, 0, 0, 1, 20.25,-0.5) ">
<use xlink:href="#Layer1_0_FILL"/>

<use xlink:href="#Layer1_0_1_STROKES"/>
</g>

<g id="SoundIsOff" transform="matrix( 0.403076171875, 0, 0, 0.403076171875, 9.65,9.6) ">
<g transform="matrix( 1, 0, 0, 1, 0,0) ">
<use xlink:href="#MessageList_SoundOff_0_Layer0_0_FILL"/>
</g>
</g>
</g>
</svg>
