
<svg xmlns="http://www.w3.org/2000/svg" version="1.1" xmlns:xlink="http://www.w3.org/1999/xlink" preserveAspectRatio="none" x="0px" y="0px" width="19px" height="19px" viewBox="0 0 19 19">
<defs>
<radialGradient id="Gradient_1" gradientUnits="userSpaceOnUse" cx="0" cy="0" r="10.600000000000001" fx="0" fy="0" gradientTransform="matrix( 1, 0, 0, 1, 8.5,8.2) " spreadMethod="pad">
<stop  offset="0%" stop-color="#FEDA18"/>

<stop  offset="69.80392156862744%" stop-color="#FEDA18"/>

<stop  offset="100%" stop-color="#BA9501"/>
</radialGradient>

<linearGradient id="Gradient_2" gradientUnits="userSpaceOnUse" x1="9.35" y1="11.5625" x2="9.35" y2="-2.2625" spreadMethod="pad">
<stop  offset="20.392156862745097%" stop-color="#FFFFFF" stop-opacity="0"/>

<stop  offset="73.72549019607843%" stop-color="#FFFFFF" stop-opacity="0.9490196078431372"/>

<stop  offset="100%" stop-color="#FFFFFF" stop-opacity="0.6509803921568628"/>

<stop  offset="100%" stop-color="#000000" stop-opacity="0.25098039215686274"/>
</linearGradient>

<radialGradient id="Gradient_3" gradientUnits="userSpaceOnUse" cx="0" cy="0" r="10.928017317885255" fx="0" fy="0" gradientTransform="matrix( 0.7240563196262573, 0.6897408542411266, -0.14526880346371987, 0.15213189654074602, 9.85,13.3) " spreadMethod="pad">
<stop  offset="0%" stop-color="#FEB74E"/>

<stop  offset="100%" stop-color="#CC0000"/>
</radialGradient>

<g id="smilies_smileback_0_Layer2_0_FILL">
<path fill="url(#Gradient_1)" stroke="none" d="
M 16.2 2.75
Q 15.555078125 2.1087890625 14.85 1.6 12.4962890625 -0.03125 9.45 -0.05 9.0818359375 -0.02578125 8.7 0 6.2634765625 0.176171875 4.3 1.5 3.49375 2.03203125 2.75 2.75 2.47109375 3.054296875 2.2 3.35 -0.02109375 5.9759765625 -0.05 9.45 -0.020703125 13.3880859375 2.75 16.15 5.56171875 18.970703125 9.45 18.95 13.4005859375 18.970703125 16.2 16.15 18.9830078125 13.3880859375 18.95 9.45 18.9830078125 5.5494140625 16.2 2.75 Z"/>
</g>

<g id="smilies_smileback_0_Layer1_0_FILL">
<path fill="url(#Gradient_2)" stroke="none" d="
M 16.95 8.55
Q 17.1 7.9 17.1 7.1 17.1 4.45 14.85 2.55 12.55 0.65 9.35 0.65 6.2 0.65 3.85 2.55 1.6 4.45 1.6 7.1 1.6 8 1.85 8.7
L 16.95 8.55 Z"/>
</g>

<g id="smilies_tongue_0_Layer3_0_FILL">
<path fill="url(#Gradient_3)" stroke="none" d="
M 13 13
L 9.15 15.75
Q 14.25 20.85 15.45 18.8 15.9 18 14.95 16.95 13.5 15.35 13 13 Z"/>
</g>

<g id="smilies_tongue_0_Layer1_0_FILL">
<path fill="#FFFFFF" stroke="none" d="
M 5.85 4.15
Q 5.55 3.75 5.25 3.55 4.6 3.05 3.85 3.05 2.75 3.05 1.9 4.15 1.05 5.25 1.05 6.8 1.05 8.35 1.9 9.45 2.75 10.55 3.85 10.55 5 10.55 5.85 9.45 6.7 8.35 6.7 6.8 6.7 5.25 5.85 4.15
M 13.9 6.8
Q 13.9 5.25 13.05 4.15 12.75 3.75 12.45 3.55 11.8 3.05 11.05 3.05 9.95 3.05 9.1 4.15 8.25 5.25 8.25 6.8 8.25 8.35 9.1 9.45 9.95 10.55 11.05 10.55 12.2 10.55 13.05 9.45 13.9 8.35 13.9 6.8 Z"/>
</g>

<g id="smilies_tongue_0_Layer0_0_FILL">
<path fill="#000000" stroke="none" d="
M 3.5 6.2
Q 2.95 6.75 2.95 7.55 2.95 8.35 3.5 8.9 4.05 9.45 4.85 9.45 5.65 9.45 6.2 8.9 6.75 8.35 6.75 7.55 6.75 6.75 6.2 6.2 5.65 5.65 4.85 5.65 4.05 5.65 3.5 6.2
M 13.9 7.55
Q 13.9 6.75 13.35 6.2 12.8 5.65 12 5.65 11.2 5.65 10.65 6.2 10.1 6.75 10.1 7.55 10.1 8.35 10.65 8.9 11.2 9.45 12 9.45 12.8 9.45 13.35 8.9 13.9 8.35 13.9 7.55 Z"/>
</g>

<path id="smilies_tongue_0_Layer3_0_1_STROKES" stroke="#CC0000" stroke-width="1" stroke-linejoin="round" stroke-linecap="round" fill="none" d="
M 13 13
Q 13.5 15.35 14.95 16.95 15.9 18 15.45 18.8 14.25 20.85 9.15 15.75"/>

<path id="smilies_tongue_0_Layer2_0_1_STROKES" stroke="#990000" stroke-width="1" stroke-linejoin="round" stroke-linecap="round" fill="none" d="
M 2.55 12.7
Q 7.5 18.65 13.4 12.6"/>

<path id="smilies_tongue_0_Layer1_0_1_STROKES" stroke="#333333" stroke-width="1" stroke-linejoin="round" stroke-linecap="round" fill="none" d="
M 13.9 6.8
Q 13.9 8.35 13.05 9.45 12.2 10.55 11.05 10.55 9.95 10.55 9.1 9.45 8.25 8.35 8.25 6.8 8.25 5.25 9.1 4.15 9.95 3.05 11.05 3.05 11.8 3.05 12.45 3.55 12.75 3.75 13.05 4.15 13.9 5.25 13.9 6.8 Z
M 5.85 4.15
Q 6.7 5.25 6.7 6.8 6.7 8.35 5.85 9.45 5 10.55 3.85 10.55 2.75 10.55 1.9 9.45 1.05 8.35 1.05 6.8 1.05 5.25 1.9 4.15 2.75 3.05 3.85 3.05 4.6 3.05 5.25 3.55 5.55 3.75 5.85 4.15 Z"/>
</defs>

<g transform="matrix( 1, 0, 0, 1, 0,0) ">
<g transform="matrix( 1, 0, 0, 1, 0,0.05) ">
<g transform="matrix( 1, 0, 0, 1, 0,0) ">
<use xlink:href="#smilies_smileback_0_Layer2_0_FILL"/>
</g>

<g transform="matrix( 1, 0, 0, 1, 0,0) ">
<use xlink:href="#smilies_smileback_0_Layer1_0_FILL"/>
</g>
</g>

<g transform="matrix( 1, 0, 0, 1, 0,0) ">
<use xlink:href="#smilies_tongue_0_Layer3_0_FILL"/>

<use xlink:href="#smilies_tongue_0_Layer3_0_1_STROKES"/>
</g>

<g transform="matrix( 1, 0, 0, 1, 0,0) ">
<use xlink:href="#smilies_tongue_0_Layer2_0_1_STROKES"/>
</g>

<g transform="matrix( 1, 0, 0, 1, 0,0) ">
<use xlink:href="#smilies_tongue_0_Layer1_0_FILL"/>

<use xlink:href="#smilies_tongue_0_Layer1_0_1_STROKES"/>
</g>

<g transform="matrix( 1, 0, 0, 1, 0,0) ">
<use xlink:href="#smilies_tongue_0_Layer0_0_FILL"/>
</g>
</g>
</svg>
