
<svg xmlns="http://www.w3.org/2000/svg" version="1.1" xmlns:xlink="http://www.w3.org/1999/xlink" preserveAspectRatio="none" x="0px" y="0px" width="50px" height="50px" viewBox="0 0 50 50">
<defs>
<radialGradient id="Gradient_1" gradientUnits="userSpaceOnUse" cx="0" cy="0" r="12.725000000000001" fx="0" fy="0" gradientTransform="matrix( 0.9999999999999999, 0, 0, 0.9990176817288801, -1.7,0.65) " spreadMethod="pad">
<stop  offset="56.470588235294116%" stop-color="#02A9D2"/>

<stop  offset="81.56862745098039%" stop-color="#FFFFFF"/>
</radialGradient>

<radialGradient id="Gradient_2" gradientUnits="userSpaceOnUse" cx="0" cy="0" r="21.035758246376574" fx="0" fy="0" gradientTransform="matrix( 0.9115430865584753, -0.41120457359743473, 0.06358221007937213, 0.14023739793207313, 0.2,-0.15) " spreadMethod="pad">
<stop  offset="64.70588235294117%" stop-color="#F9C931" stop-opacity="0"/>

<stop  offset="72.54901960784314%" stop-color="#F9C931"/>

<stop  offset="92.54901960784314%" stop-color="#F9C931"/>

<stop  offset="100%" stop-color="#F9C931" stop-opacity="0"/>
</radialGradient>

<g id="xatsat_0_Layer1_0_FILL">
<path fill="url(#Gradient_1)" stroke="none" d="
M 5.9 -7.1
Q 3.45 -9.1 0.25 -9.1 -3.5 -9.1 -6.1 -6.45 -8.75 -3.85 -8.7 -0.15 -8.75 0.5 -8.65 1.15 -8.25 4.05 -6.1 6.2 -3.5 8.8 0.25 8.8 3.95 8.8 6.55 6.2 9.15 3.55 9.15 -0.15 9.15 -3.85 6.55 -6.45 6.2 -6.8 5.9 -7.1 Z"/>
</g>

<g id="xatsat_0_Layer0_0_FILL">
<path fill="url(#Gradient_2)" stroke="none" d="
M -20.5 9
L -16.8 9.65 8.2 9.65 21.9 -9.35 -9.9 -9.35 -20.5 9
M 6.55 -6.45
Q 7.75 -5.3 8.4 -3.85
L -8 3.45
Q -8.5 2.35 -8.65 1.15 -8.75 0.5 -8.7 -0.15 -8.75 -3.85 -6.1 -6.45 -3.5 -9.1 0.25 -9.1 3.45 -9.1 5.9 -7.1 6.2 -6.8 6.55 -6.45 Z"/>
</g>
</defs>

<g transform="matrix( 1.1792449951171875, 0, 0, 1.1789398193359375, 25.05,25) ">
<g transform="matrix( 1, 0, 0, 1, 0,0) ">
<use xlink:href="#xatsat_0_Layer1_0_FILL"/>
</g>

<g transform="matrix( 1, 0, 0, 1, 0,0) ">
<use xlink:href="#xatsat_0_Layer0_0_FILL"/>
</g>
</g>
</svg>
