
<svg xmlns="http://www.w3.org/2000/svg" version="1.1" xmlns:xlink="http://www.w3.org/1999/xlink" preserveAspectRatio="none" x="0px" y="0px" width="57px" height="19px" viewBox="0 0 57 19">
<defs>
<radialGradient id="Gradient_1" gradientUnits="userSpaceOnUse" cx="0" cy="0" r="5.267856537530231" fx="0" fy="0" gradientTransform="matrix( 0.9989831656401291, 0.04508475094337875, -0.04271186931477987, 0.9752543493541403, 20.2,6.65) " spreadMethod="pad">
<stop  offset="56.470588235294116%" stop-color="#02A9D2"/>

<stop  offset="81.56862745098039%" stop-color="#FFFFFF"/>
</radialGradient>

<radialGradient id="Gradient_2" gradientUnits="userSpaceOnUse" cx="0" cy="0" r="16.1" fx="0" fy="0" gradientTransform="matrix( 0.9999999999999999, 0, 0, 0.9999999999999999, 11.35,11.35) " spreadMethod="pad">
<stop  offset="39.6078431372549%" stop-color="#F9C931" stop-opacity="0"/>

<stop  offset="49.411764705882355%" stop-color="#F9C931"/>

<stop  offset="63.529411764705884%" stop-color="#F9C931"/>

<stop  offset="72.94117647058823%" stop-color="#F9C931" stop-opacity="0"/>
</radialGradient>

<g id="xatsat_0_Layer1_0_FILL">
<path fill="url(#Gradient_1)" stroke="none" d="
M 23.6 3.9
Q 23.55 3.85 23.35 3.6 22.4 2.75 21.15 2.7 19.65 2.6 18.45 3.65 17.35 4.65 17.25 6.2 17.25 6.4 17.2 6.7 17.5 8 18.25 8.7 19.3 9.85 20.9 9.9 22.35 9.95 23.4 9 24.55 7.95 24.7 6.55 24.8 5.05 23.6 3.9 Z"/>
</g>

<g id="xring_0_Layer0_0_FILL">
<path fill="url(#Gradient_2)" stroke="none" d="
M 22.75 22.75
L 22.75 0 16 0 16.5 11.85 11.35 10.5 6.4 10.3 6.55 0 0 0 0 22.75 22.75 22.75 Z"/>
</g>

<g id="Layer0_0_FILL">
<path fill="#000000" fill-opacity="0.4980392156862745" stroke="none" d="
M 33.5 7.35
Q 33.35 7.3 33.2 7.3
L 30.55 7.3
Q 30.3 7.3 30.1 7.5 29.9 7.65 29.9 7.9 29.85 8.15 30 8.4
L 32.8 12.25 29.65 16.6
Q 29.5 16.8 29.55 17.05 29.6 17.3 29.8 17.5 29.95 17.65 30.25 17.65
L 32.8 17.65
Q 33 17.65 33.15 17.55 33.25 17.5 33.35 17.4
L 34.95 15.2 36.55 17.4
Q 36.65 17.5 36.8 17.55 36.9 17.65 37.1 17.65
L 39.7 17.65
Q 40 17.65 40.15 17.5 40.35 17.3 40.4 17.05 40.45 16.8 40.3 16.6
L 37.1 12.25 39.85 8.4
Q 40 8.15 40 7.9 40 7.65 39.8 7.5 39.55 7.3 39.3 7.3
L 36.75 7.3
Q 36.6 7.3 36.45 7.35 36.3 7.45 36.2 7.6
L 35 9.3 33.75 7.6
Q 33.65 7.45 33.5 7.35
M 33.35 7.65
Q 33.4 7.7 33.45 7.8
L 35 9.9 36.45 7.8
Q 36.5 7.7 36.6 7.65 36.65 7.65 36.75 7.65
L 39.3 7.65
Q 39.45 7.65 39.55 7.75 39.65 7.8 39.7 7.95 39.7 8.1 39.6 8.2
L 36.7 12.25 40 16.8
Q 40.1 16.9 40.05 17 40.05 17.15 39.95 17.25 39.85 17.3 39.7 17.3
L 37.1 17.3
Q 37.05 17.3 36.95 17.25 36.9 17.25 36.8 17.15
L 34.95 14.6 33.1 17.15
Q 33.05 17.25 32.95 17.25 32.9 17.3 32.8 17.3
L 30.25 17.3
Q 30.1 17.3 30 17.25 29.9 17.15 29.9 17 29.9 16.9 29.95 16.8
L 33.25 12.25 30.25 8.2
Q 30.2 8.1 30.25 7.95 30.25 7.8 30.35 7.75 30.4 7.65 30.55 7.65
L 33.2 7.65
Q 33.25 7.65 33.35 7.65
M 44.15 7.2
Q 42.1 7.2 40.65 8.7 39.25 10.25 39.25 12.6 39.25 14.9 40.7 16.45 42.2 18 44.2 18 45.15 18 45.9 17.7 46.2 17.55 46.4 17.4 46.45 17.5 46.5 17.55 46.7 17.75 47 17.75
L 49.25 17.75
Q 49.55 17.75 49.75 17.55 49.9 17.4 49.9 17.1
L 49.9 8.1
Q 49.9 7.8 49.75 7.6 49.55 7.4 49.25 7.4
L 47 7.4
Q 46.7 7.4 46.5 7.6 46.45 7.65 46.4 7.8 46.2 7.65 45.95 7.55 45.1 7.2 44.15 7.2
M 40.9 8.95
Q 42.25 7.5 44.15 7.5 45.05 7.5 45.8 7.85 46.25 8.05 46.65 8.35
L 46.65 8.1
Q 46.65 7.95 46.75 7.85 46.85 7.75 47 7.75
L 49.25 7.75
Q 49.4 7.75 49.5 7.85 49.6 7.95 49.6 8.1
L 49.6 17.1
Q 49.6 17.25 49.5 17.3 49.4 17.4 49.25 17.4
L 47 17.4
Q 46.85 17.4 46.75 17.3 46.65 17.25 46.65 17.1
L 46.65 16.85
Q 46.2 17.15 45.8 17.35 45.05 17.65 44.2 17.65 42.35 17.65 40.95 16.2 39.55 14.75 39.55 12.6 39.55 10.4 40.9 8.95
M 44.6 10.3
Q 43.7 10.3 43.1 10.9 42.5 11.55 42.5 12.55 42.5 13.6 43.1 14.3 43.7 14.9 44.6 14.9 45.55 14.9 46.15 14.3 46.75 13.6 46.75 12.55 46.75 11.55 46.15 10.9 45.55 10.3 44.6 10.3
M 43.4 11.15
Q 43.85 10.6 44.6 10.6 45.4 10.6 45.9 11.15 46.4 11.7 46.4 12.55 46.4 13.45 45.9 14.05 45.4 14.6 44.6 14.6 43.85 14.6 43.4 14 42.85 13.45 42.85 12.55 42.85 11.7 43.4 11.15
M 51.65 4.25
Q 51.5 4.45 51.5 4.7
L 51.5 7.3 51 7.3
Q 50.75 7.3 50.5 7.5 50.35 7.7 50.35 7.95
L 50.35 9.9
Q 50.35 10.2 50.5 10.4 50.75 10.6 51 10.6
L 51.5 10.6 51.5 14
Q 51.5 15.45 51.8 16.15 52.15 17 52.85 17.45 53.55 17.85 54.55 17.85 54.75 17.85 54.95 17.85 55.5 17.8 56.35 17.55 56.4 17.5 56.45 17.5 56.65 17.45 56.8 17.25 56.9 17.1 56.9 16.85
L 56.9 15.1
Q 56.9 14.85 56.75 14.65 56.6 14.45 56.4 14.45
L 56.35 14.45
Q 56.15 14.35 55.95 14.45 55.55 14.65 55.3 14.65 55.25 14.65 55.15 14.65 55.1 14.5 55.1 14.15
L 55.1 10.6 55.8 10.6
Q 56.05 10.6 56.25 10.4 56.3 10.35 56.35 10.3 56.45 10.1 56.45 9.9
L 56.45 7.95
Q 56.45 7.75 56.35 7.65 56.3 7.55 56.25 7.5 56.05 7.3 55.8 7.3
L 55.1 7.3 55.1 4.7
Q 55.1 4.45 54.95 4.25
L 54.95 4.2
Q 54.7 4 54.45 4
L 52.15 4
Q 51.9 4 51.7 4.2
L 51.65 4.25
M 51.85 4.7
Q 51.85 4.55 51.95 4.45 52.05 4.35 52.15 4.35
L 54.45 4.35
Q 54.6 4.35 54.65 4.45 54.8 4.55 54.8 4.7
L 54.8 7.65 55.8 7.65
Q 55.95 7.65 56 7.75 56.1 7.85 56.1 7.95
L 56.1 9.9
Q 56.1 10.05 56 10.15 55.95 10.25 55.8 10.25
L 54.8 10.25 54.8 14.15
Q 54.8 14.65 54.9 14.9
L 54.95 14.9
Q 55.1 15 55.3 15 55.65 15 56.1 14.75 56.2 14.75 56.3 14.75
L 56.35 14.75
Q 56.45 14.8 56.5 14.9 56.55 14.95 56.55 15.1
L 56.55 16.85
Q 56.55 16.95 56.5 17.1 56.4 17.15 56.35 17.2 55.55 17.45 54.95 17.55 54.75 17.55 54.55 17.55 53.65 17.55 53 17.15 52.4 16.75 52.1 16.05 51.85 15.35 51.85 14
L 51.85 10.25 51 10.25
Q 50.9 10.25 50.8 10.15 50.65 10.05 50.65 9.9
L 50.65 7.95
Q 50.65 7.85 50.8 7.75 50.9 7.65 51 7.65
L 51.85 7.65 51.85 4.7 Z"/>

<path fill="#000000" fill-opacity="0.7411764705882353" stroke="none" d="
M 33.45 7.8
Q 33.4 7.7 33.35 7.65 33.25 7.65 33.2 7.65
L 30.55 7.65
Q 30.4 7.65 30.35 7.75 30.25 7.8 30.25 7.95 30.2 8.1 30.25 8.2
L 33.25 12.25 29.95 16.8
Q 29.9 16.9 29.9 17 29.9 17.15 30 17.25 30.1 17.3 30.25 17.3
L 32.8 17.3
Q 32.9 17.3 32.95 17.25 33.05 17.25 33.1 17.15
L 34.95 14.6 36.8 17.15
Q 36.9 17.25 36.95 17.25 37.05 17.3 37.1 17.3
L 39.7 17.3
Q 39.85 17.3 39.95 17.25 40.05 17.15 40.05 17 40.1 16.9 40 16.8
L 36.7 12.25 39.6 8.2
Q 39.7 8.1 39.7 7.95 39.65 7.8 39.55 7.75 39.45 7.65 39.3 7.65
L 36.75 7.65
Q 36.65 7.65 36.6 7.65 36.5 7.7 36.45 7.8
L 35 9.9 33.45 7.8
M 33.65 12.25
L 30.55 7.95 33.2 7.95 35 10.45 36.75 7.95 39.3 7.95 36.25 12.25 39.7 16.95 37.1 16.95 34.95 14 32.8 16.95 30.25 16.95 33.65 12.25
M 44.15 7.5
Q 42.25 7.5 40.9 8.95 39.55 10.4 39.55 12.6 39.55 14.75 40.95 16.2 42.35 17.65 44.2 17.65 45.05 17.65 45.8 17.35 46.2 17.15 46.65 16.85
L 46.65 17.1
Q 46.65 17.25 46.75 17.3 46.85 17.4 47 17.4
L 49.25 17.4
Q 49.4 17.4 49.5 17.3 49.6 17.25 49.6 17.1
L 49.6 8.1
Q 49.6 7.95 49.5 7.85 49.4 7.75 49.25 7.75
L 47 7.75
Q 46.85 7.75 46.75 7.85 46.65 7.95 46.65 8.1
L 46.65 8.35
Q 46.25 8.05 45.8 7.85 45.05 7.5 44.15 7.5
M 41.15 9.2
Q 42.35 7.85 44.15 7.85 44.95 7.85 45.65 8.15 46.35 8.45 47 9.1
L 47 8.1 49.25 8.1 49.25 17.1 47 17.1 47 16.15
Q 46.35 16.75 45.65 17.05 45 17.3 44.2 17.3 42.5 17.3 41.2 15.95 39.9 14.6 39.9 12.6 39.9 10.5 41.15 9.2
M 44.6 9.95
Q 43.55 9.95 42.85 10.7 42.2 11.4 42.2 12.55 42.2 13.75 42.9 14.5 43.55 15.25 44.6 15.25 45.7 15.25 46.35 14.5 47.1 13.75 47.1 12.55 47.1 11.4 46.35 10.65 45.7 9.95 44.6 9.95
M 43.1 10.9
Q 43.7 10.3 44.6 10.3 45.55 10.3 46.15 10.9 46.75 11.55 46.75 12.55 46.75 13.6 46.15 14.3 45.55 14.9 44.6 14.9 43.7 14.9 43.1 14.3 42.5 13.6 42.5 12.55 42.5 11.55 43.1 10.9
M 51.95 4.45
Q 51.85 4.55 51.85 4.7
L 51.85 7.65 51 7.65
Q 50.9 7.65 50.8 7.75 50.65 7.85 50.65 7.95
L 50.65 9.9
Q 50.65 10.05 50.8 10.15 50.9 10.25 51 10.25
L 51.85 10.25 51.85 14
Q 51.85 15.35 52.1 16.05 52.4 16.75 53 17.15 53.65 17.55 54.55 17.55 54.75 17.55 54.95 17.55 55.55 17.45 56.35 17.2 56.4 17.15 56.5 17.1 56.55 16.95 56.55 16.85
L 56.55 15.1
Q 56.55 14.95 56.5 14.9 56.45 14.8 56.35 14.75
L 56.3 14.75
Q 56.2 14.75 56.1 14.75 55.65 15 55.3 15 55.1 15 54.95 14.9
L 54.9 14.9
Q 54.8 14.65 54.8 14.15
L 54.8 10.25 55.8 10.25
Q 55.95 10.25 56 10.15 56.1 10.05 56.1 9.9
L 56.1 7.95
Q 56.1 7.85 56 7.75 55.95 7.65 55.8 7.65
L 54.8 7.65 54.8 4.7
Q 54.8 4.55 54.65 4.45 54.6 4.35 54.45 4.35
L 52.15 4.35
Q 52.05 4.35 51.95 4.45
M 52.15 4.7
L 54.45 4.7 54.45 7.95 55.8 7.95 55.8 9.9 54.45 9.9 54.45 14.15
Q 54.45 14.85 54.65 15.1 54.75 15.25 54.95 15.35 55.1 15.35 55.3 15.35 55.7 15.35 56.25 15.1
L 56.25 16.85
Q 55.5 17.1 54.95 17.2 54.75 17.2 54.55 17.2 53.75 17.2 53.2 16.85 52.7 16.5 52.45 15.9 52.15 15.25 52.15 14
L 52.15 9.9 51 9.9 51 7.95 52.15 7.95 52.15 4.7 Z"/>

<path fill="#FFFFFF" stroke="none" d="
M 30.55 7.95
L 33.65 12.25 30.25 16.95 32.8 16.95 34.95 14 37.1 16.95 39.7 16.95 36.25 12.25 39.3 7.95 36.75 7.95 35 10.45 33.2 7.95 30.55 7.95
M 44.15 7.85
Q 42.35 7.85 41.15 9.2 39.9 10.5 39.9 12.6 39.9 14.6 41.2 15.95 42.5 17.3 44.2 17.3 45 17.3 45.65 17.05 46.35 16.75 47 16.15
L 47 17.1 49.25 17.1 49.25 8.1 47 8.1 47 9.1
Q 46.35 8.45 45.65 8.15 44.95 7.85 44.15 7.85
M 42.85 10.7
Q 43.55 9.95 44.6 9.95 45.7 9.95 46.35 10.65 47.1 11.4 47.1 12.55 47.1 13.75 46.35 14.5 45.7 15.25 44.6 15.25 43.55 15.25 42.9 14.5 42.2 13.75 42.2 12.55 42.2 11.4 42.85 10.7
M 54.45 4.7
L 52.15 4.7 52.15 7.95 51 7.95 51 9.9 52.15 9.9 52.15 14
Q 52.15 15.25 52.45 15.9 52.7 16.5 53.2 16.85 53.75 17.2 54.55 17.2 54.75 17.2 54.95 17.2 55.5 17.1 56.25 16.85
L 56.25 15.1
Q 55.7 15.35 55.3 15.35 55.1 15.35 54.95 15.35 54.75 15.25 54.65 15.1 54.45 14.85 54.45 14.15
L 54.45 9.9 55.8 9.9 55.8 7.95 54.45 7.95 54.45 4.7 Z"/>
</g>
</defs>

<g transform="matrix( 2.2469940185546875, 0, 0, 2.2485198974609375, -28.8,-4.85) ">
<g transform="matrix( 1, 0, 0, 1, 0,0) ">
<use xlink:href="#xatsat_0_Layer1_0_FILL"/>
</g>

<g transform="matrix( 0.686981201171875, -0.266326904296875, 0.0410919189453125, 0.10601806640625, 12.65,8.2) ">
<g transform="matrix( 1, 0, 0, 1, 0,0) ">
<use xlink:href="#xring_0_Layer0_0_FILL"/>
</g>
</g>
</g>

<g transform="matrix( 1, 0, 0, 1, 0,0) ">
<use xlink:href="#Layer0_0_FILL"/>
</g>
</svg>
